<svg xmlns="http://www.w3.org/2000/svg" width="300" height="300"><defs><linearGradient id="A" x1="77.332" y1="429.789" x2="813.767" y2="429.789" gradientUnits="userSpaceOnUse"><stop offset="0" stop-color="#ffeb9b"/><stop offset="1" stop-color="#ff9bc7"/></linearGradient></defs><g transform="matrix(.407368 0 0 .407368 -31.502745 -25.082367)"><circle cx="445.549" cy="429.789" r="368.217" fill="url(#A)"/><g transform="translate(67.145 79.064)"><g fill="none" stroke-width="2"><path stroke="#c7c3c1" vector-effect="non-scaling-stroke" d="M115.25 166.79l7.04 23.71"/><path stroke="#d6d3d0" vector-effect="non-scaling-stroke" d="M122.29 190.5q-.55 7.25-.04 17.5.57 11.51 5 21.04"/><path stroke="#c7c3c1" vector-effect="non-scaling-stroke" d="M127.25 229.04l4 10.25"/><path stroke="#bcb6b0" vector-effect="non-scaling-stroke" d="M131.25 239.29q1.08 2.81 2.12 5.63 3.64 9.91.1 19.34-.93 2.46-3.47 6.63-3.07 5.02-4.06 6.3-6.23 8-10.23 17.31"/><path stroke="#d4d6da" vector-effect="non-scaling-stroke" d="M115.71 294.5q-9.62 16.72-9.71 33.5-.05 9.31 4.21 22"/><path stroke="#aeaaa2" vector-effect="non-scaling-stroke" d="M110.21 350q2.25 13.95-5.9 25.31-5.71 7.97-14.12 17.13-13.72 14.94-29.63 34.62-6.1 7.55-17.31 19.15"/><path stroke="#939397" vector-effect="non-scaling-stroke" d="M43.25 446.21q-2.3 1.71-4.61 3.41-10.78 7.92-10.69 20.71.03 3.89 1.45 8.19 1.4 4.27 3.41 7.67 7.57 12.82 20.94 20.85"/><path stroke="#babdca" vector-effect="non-scaling-stroke" d="M53.75 507.04q4.2 3.28 18.25 13.46 3.27 2.37 6.46 2.75"/><path stroke="#d7d9e1" vector-effect="non-scaling-stroke" d="M78.46 523.25q7.04 2.85 15.79 3.25 13.39.61 24.94-1.57 13.36-2.52 22.56-5.43 38.64-12.2 48.56-15.19 15.43-4.64 32.44-6.2 4.65-.43 9-.27 4.51.17 9 .64 3.13.32 5.44 3.08 14.91 17.84 25.02 36.74 11.11 20.74 22.85 41.14 5.47 9.5 13.89 19.72 3.4 4.14 11.44 12.37 7.54 7.72 11.3 12.53 16.49 21.15 36.06 39.48"/><path stroke="#dddad3" vector-effect="non-scaling-stroke" d="M366.75 663.54q18.24 19.28 38 37"/><path stroke="#dad2c4" vector-effect="non-scaling-stroke" d="M404.75 700.54q6.38 17.04 25 14.96 8.15-.91 23.5-4.54"/><path stroke="#d0c8bb" vector-effect="non-scaling-stroke" d="M453.25 710.96q1.99-.12 3.93-.54 103.34-22.37 177.32-97.38"/><path stroke="#b6b4b3" vector-effect="non-scaling-stroke" d="M634.5 613.04l7-7"/><path stroke="#a9a9aa" vector-effect="non-scaling-stroke" d="M641.5 606.04q16.66-14.75 29.69-33.6 15.92-23.04 28.85-45.94"/><path stroke="#b6b4b3" vector-effect="non-scaling-stroke" d="M700.04 526.5l7.42-13.75"/><path stroke="#a8a8ac" vector-effect="non-scaling-stroke" d="M707.46 512.75q7.31-13.34 12.41-27.66 4.71-13.2 8.84-26.59"/><path stroke="#9a9a9c" vector-effect="non-scaling-stroke" d="M728.71 458.5q4.72-12.24 6.22-25.26.95-8.3-4.13-12.51-1.45-1.21-10.72-5.15-16.58-7.05-40.08-16.08-15.44-5.93-39-16.29"/><path stroke="#aaaaab" vector-effect="non-scaling-stroke" d="M641 383.21q-21.66-10.58-43.75-20.21-11.21-4.89-44.23-19.96-27.38-12.49-53.27-27.83"/><path stroke="#b9b7b7" vector-effect="non-scaling-stroke" d="M499.75 315.21q-12.76-10.09-18.56-13.9-22.81-14.97-44.44-31.6"/><path stroke="#c7bcaa" vector-effect="non-scaling-stroke" d="M436.75 269.71q-.63-1.19-.5-3.21.73-11.24-.04-25.5"/><path stroke="#b8b3aa" vector-effect="non-scaling-stroke" d="M436.21 241q.49-9.74-.71-17-1-6.04-4.17-11.62-1.68-2.96-7.32-9.75-7.36-8.85-21.07-25.82-26.69-33.03-48.05-66.4-3.63-5.69-10.45-17.07-14.89-24.85-19.5-31.03-4.21-5.63-8.25-8.75-6.36-4.89-14.01-4.74-6.53.13-13.74 3.28-7.67 3.35-13.08 10.25-4.4 5.61-7.86 11.86"/><path stroke="#c8c4bf" vector-effect="non-scaling-stroke" d="M268 74.21q-6.37 9.99-11.23 20.8-6.31 14.04-11.4 28.57-.64 1.82-1.62 3.46"/><path stroke="#b6ab9c" vector-effect="non-scaling-stroke" d="M243.75 127.04q-16.49-5.94-27.44-12.35-26.51-15.52-53.06-30.98"/><path stroke="#c3bcb1" vector-effect="non-scaling-stroke" d="M163.25 83.71q-9.78-7.23-18.04-16.17-12.07-13.05-24.77-25.48-13.2-12.92-33.19-19.35"/><path stroke="#d1d1d2" vector-effect="non-scaling-stroke" d="M87.25 22.71l-4.61-2.25q-1.93-.94-3.69.96-2.13 2.31-2.89 5.35-1.24 4.92-1.63 9.95-.34 4.38.7 9.98 3.72 19.93 9.95 39.23 7.62 23.61 16.75 46.68 6.75 17.07 13.42 34.18"/><path stroke="#968f85" vector-effect="non-scaling-stroke" d="M87.25 22.71q-1.07.5-.43 1.09.56.51.64.61 20.74 26.41 41.85 52.53 3.49 4.32 18.98 21.56"/><path stroke="#9a9695" vector-effect="non-scaling-stroke" d="M148.29 98.5q-2.63 5.71-6.6 8.69-4.11 3.07-8.05-.33-2.62-2.26-4.68-5.07-4.52-6.17-9.8-11.7-3.87-4.06-7.97-4.28-5.28-.28-4.38 5.13 1.37 8.19 4.27 13.99 3.77 7.52 5.42 10.32 4.69 7.96 7.33 16.8 1.23 4.1 1.17 9.45-.05 4.88.55 15.33.36 6.3.27 6.82-.72 4.66-6.82 4.35-1.46-.07-3.75-1.21"/><path stroke="#9d989a" vector-effect="non-scaling-stroke" d="M169.21 126.25q-1.54-.27-2.88-1.09-6.45-3.93-13.52-6.57-3.33-1.25-6.55-.64-2.76.52-3.26 3.29-.4 2.2-.15 4.38.18 1.59 1.36 4.08 5.67 11.97 6.5 25.3.4 6.34 1.51 12.56 1.37 7.7 4.09 11.83 5.47 8.28 16.69 10.61 8.73 1.81 11.71 2"/><path stroke="#726764" vector-effect="non-scaling-stroke" d="M278.25 236.21q9.12 5.6 16.04 13.79"/><path stroke="#998b7a" vector-effect="non-scaling-stroke" d="M305 275.04q-.54.65-.06.92.4.23.46.28 5.3 4.47 11.18 8.17 6.24 3.91 9.23 7.53 3.71 4.48 4.44 9.56.61 4.22.71 11.75"/><path stroke="#9c9390" vector-effect="non-scaling-stroke" d="M330.96 313.25q-7.03-2.1-11.27-5.19-6.39-4.64-9.19-6.31-7.93-4.73-15.29.72-1.63 1.21-3.3 2.38-1.71 1.2-3.69 1.3-6.37.33-12.51-1.16-4.26-1.03-6.97-2.87-3.2-2.15-5.42-5.48-1.63-2.46-3.34-4.86-3.57-5.04-9.62-6.33-5.43-1.15-10.88.05a1.25 1.24 79.7 0 0-.96 1.39q.87 6.06 3.06 10.46 1.07 2.14 1.37 4.52.54 4.29-3.13 5.35-2.37.69-6.32 1.28-7.4 1.11-15 5-4.54 2.33-17.06 10.69-11.31 7.55-25.7 4.9a1.09 1.05 29.5 0 0-.88.23q-9.82 8.12-16.04 19.25-2.94 5.27-1.82 10.18 1.02 4.44 5.96 5.75"/><path stroke="#857b73" vector-effect="non-scaling-stroke" d="M162.96 364.5q.6 7.12.04 9.25-.86 3.28-3.42 4.78-1.7.99-5.34 1.03-9.67.12-19.42-1.08a.39.38 12.2 0 1-.32-.49q4.41-14.67 2.84-29.97-1.75-17 2.54-34.04.43-1.7-.37-3.26-2.15-4.21-3.13-8.96-.94-4.59-.07-8.53 1.02-4.57 3.75-7.92 5.2-6.37 14-11.5 2.71-1.57 8.32-5.69.05-.04 2.92-2.04 5.13-3.58 8.51-8.69 1.06-1.61-.86-1.41-5.45.58-10.63.03-2.24-.24-1.87-2.53l2.05-12.54a.45.44 5 0 0-.44-.51l-28.3-.42a2.02 1.3 51.1 0 1-.91-.3q-.73-.45-1.6-.42"/><path stroke="#9f9893" vector-effect="non-scaling-stroke" d="M127.25 229.04q6.54 2.12 11.75.46 4.82-1.54 6.7-5.92 1.33-3.1 1.11-8.3-.53-12.38-9.5-21.09-6.26-6.1-15.02-3.69"/><path stroke="#7b694e" vector-effect="non-scaling-stroke" d="M163.25 83.71q-.56.54-.5 2.04.47 11.93 5.57 21.37 2.83 5.23 6.18 10.15 6.51 9.56 12.68 19.35 4.98 7.9 7.42 16.78.62 2.23 2.08 12.82 1.6 11.51 5.85 22.4 2.34 6.01 4.69 12.01 5.78 14.77 5.26 31.26-.05 1.65 1.03.41 9.4-10.68 12.57-23.84 3.86-15.97 7.67-31.96 1.82-7.64 7.71-17"/><path stroke="#8d8271" vector-effect="non-scaling-stroke" d="M241.46 159.5q.48 2.3.07 4.53-.71 3.95-.72 4-1.49 16.57-1.74 33.22-.27 17.76 4.03 35.4.35 1.46 1.11.16 5.85-9.99 14.04-18.06 7.05-6.95 14.21-13.8 6.15-5.88 11.28-12.26a1.16 1.16 40.3 0 1 1.69-.14q5.35 4.86 11.57 8.49"/><path stroke="#6e6154" vector-effect="non-scaling-stroke" d="M297 201.04q-1.03.66-1.56 2.4-.9 2.96-4.37 11.7-1.86 4.68-6.84 5.47-3.85.62-7.73.16-5.42-.65-10.26 1.74-2.46 1.2-1.15 3.61 1.13 2.1 3.75 3.78 4.76 3.08 9.41 6.31"/><path stroke="#8c8174" vector-effect="non-scaling-stroke" d="M278.25 236.21q-.4-.03-.68.17a1.36.34-39.8 0 1-.81.39q-13.65.74-14.57 14.49-.62 9.23-.41 20a.77.77 6.8 0 1-.97.76q-5.82-1.55-11.9-3.29-10.06-2.89-11.77-3.62-6.47-2.75-11.41-8.1-4.4-4.76-8.72-10.69a1.41 1.4-42.2 0 0-2.18-.1q-5.16 5.77-10.75 9.55-3.76 2.54-3.54-2.28.53-11.51-.29-22.98a.6.59-18.9 0 0-.93-.45q-3.91 2.59-8.28 4.2-4.23 1.55-6.53-.81-1.56-1.59-1.99-5.29-.45-3.82-.02-8.41 1.03-10.88 1.49-14 1.01-6.84.72-13.75"/><path stroke="#999289" vector-effect="non-scaling-stroke" d="M184.71 192q4.32-35.96-15.5-65.75"/><path stroke="#8c8174" vector-effect="non-scaling-stroke" d="M169.21 126.25q.17-.85-.02-1.19-8.03-14.29-19.59-25.91-.54-.55-1.31-.65"/><path stroke="#91877f" vector-effect="non-scaling-stroke" d="M162.96 364.5l1.76-6.89q.74-2.89 3.7-1.31 3.94 2.11 8.33 2.74"/><path stroke="#666054" vector-effect="non-scaling-stroke" d="M176.75 359.04q9.15 10.27 22.24 14.73 1.14.39 2.01 1.19"/><path stroke="#908782" vector-effect="non-scaling-stroke" d="M201 374.96q-7.33 1.83-14.47 4.27-5.54 1.89-3.72 6.96 3.8 10.52 1.65 19.81"/><path stroke="#8b7d70" vector-effect="non-scaling-stroke" d="M184.46 406l-1.34-.68q-.52-.26-.93-.26-6.1.07-9.63 1.25-7.31 2.46-14.43 9.08-8.57 7.98-20 7.3-2.23-.13-4.81-1.51-4.1-2.19-6.57-2.68-4.87-.96-6.25 3-1.18 3.4-.49 7.62.87 5.28.79 6.34-.38 5.18-3.97 8.56-2.27 2.14-7.25 4.02-4.49 1.7-8.08 2.21-10.05 1.43-20 3.46"/><path stroke="#6c6254" vector-effect="non-scaling-stroke" d="M81.5 453.71q.39-.98 1.69-2.27 3.19-3.19 9.54-9.96 7.79-8.3 9.25-10.24 8.12-10.82 8.4-24.72.19-9.5.19-9.53.62-6.51 2.18-11.74 2.51-8.42 6.87-20.55 6.37-17.73 6.67-18.85 3.14-11.62 2.49-23.89-.03-.53-.3-.83-.3-.36-.73-.59"/><path stroke="#928e8c" vector-effect="non-scaling-stroke" d="M127.75 320.54q.51-1.11.25-2.04-3.6-13-12.29-24"/><path stroke="#817156" vector-effect="non-scaling-stroke" d="M436.21 241q-.96-.16-1.77-1.19-2.05-2.58-5.09-3.17-2.44-.48-5.55.84-3.49 1.47-5.86 3.71-13.93 13.12-22.01 30.51-.79 1.7-.94-.17-.69-8.55-.55-18.03.03-1.87-.69-3.54"/><path stroke="#8a7b63" vector-effect="non-scaling-stroke" d="M393.75 249.96q7.87-23.2 6.56-47.71-.44-8.32-3.2-16.16-.69-1.95-2.92-5.28-3.11-4.63-8.7-5.06a.67.67-.7 0 0-.72.73q1.01 9.37 1.57 19.01.66 11.33-.96 22.44-1.61 11.09-5.42 19.17-5.35 11.35-15.16 20.43a1.29 1.29-44.7 0 0-.01 1.89q9.78 9.23-.73 17.39-3.42 2.66-9.57 4.38-.08.02-2.8.94-2.66.89-4.88.06-16.99-6.39-24.06-8.19-8.29-2.11-17.75 1.04"/><path stroke="#81776d" vector-effect="non-scaling-stroke" d="M305 275.04q-.93-.04-1.31-.48-3.09-3.6-5.19-8.81-1.39-3.45-4.21-15.75"/><path stroke="#63574d" vector-effect="non-scaling-stroke" d="M294.29 250q5.25-6.82 10.93-13.29 3.73-4.25 8.57-7.23 1.47-.91 3-.12 9.76 5.06 16.32 14.04 2.91 3.99 5.65 8.11a1.26 1.25 52.5 0 0 1.88.25q3.39-3 4.29-7.35.36-1.77.06-6.33-.21-3.16-.21-6.33 0-6.8 3.82-11.63a1.16 1.15 38.7 0 0-.18-1.61q-8.93-7.34-18.61-13.07-3.54-2.1-12.56-8.98"/><path stroke="#82786b" vector-effect="non-scaling-stroke" d="M317.25 196.46l-.21-3.71"/><path stroke="#62564c" vector-effect="non-scaling-stroke" d="M317.04 192.75q5.74 1.96 11.3 4.38 5.59 2.44 10.91 2.62 7.32.24 11.23-6.04 1.54-2.48.52-5.96-2.52-8.63-4.94-23.01-2.89-17.15-5.79-34.58a1.12 1.11 10.3 0 0-.53-.76q-2.83-1.7-5.62-2.84-5.04-2.06-7.9 2.36-3.17 4.9-7.46 8.84-.74.68-1.72.74"/><path stroke="#82786b" vector-effect="non-scaling-stroke" d="M317.04 138.5q2.68-11.81 2.51-24.97a.44.43 84.4 0 0-.51-.42q-4.63.84-8.76 2.16-2.49.81-8.24 3.54-9.83 4.66-20.31 7.69a1.4 1.4 66.2 0 1-1.6-.62q-4.63-7.56-3.9-16.35.21-2.62 1.77-7.82 1.15-3.84 2.18-7.73 1.66-6.25-1.93-11.23-3.92-5.44-10.25-8.54"/><path stroke="#998463" vector-effect="non-scaling-stroke" d="M393.75 249.96Q386 268.48 385 285q-1.05 17.35 5.94 32.06 1 2.11 1.02 3.19"/><path stroke="#aea18f" vector-effect="non-scaling-stroke" d="M391.96 320.25q-4.79-3.65-9.37-7.57-4.16-3.57-9.25-5.56-3.31-1.3-6.63-.12"/><path stroke="#a49786" vector-effect="non-scaling-stroke" d="M366.71 307q-2.7.29-6.02 1.69-1.87.78-12.12 4.39-4.29 1.51-8.82 1.94-4.7.46-8.79-1.77"/><path stroke="#b1a9a5" vector-effect="non-scaling-stroke" d="M366.71 307q-7.77 7.89-10.9 14.31-3.03 6.22-6.2 12.35-4.29 8.28-7.69 11.1-7.39 6.16-18.53 3.54-1.16-.27-.06-.74 4.4-1.89 7.94-4.99 3.19-2.81 3.93-5.41 1.06-3.7-1.97-7.14-3.83-4.35-9.15-6.69-8.98-3.94-18.83-3.91-3.99.01-7.45 1.9a2 2 76.6 0 0-1.05 1.71q-.21 6.9 1.36 13.65.86 3.73 1.37 7.52.1.75-.17 1.18-.56.91-1.61-.33-3.93-4.69-8.14-9.11-2.69-2.84-5.06.31-.97 1.29-1.59 3.93-.37 1.55-.58 4.17-.91 11.41-1.56 22.59a1.46 1.44 82.6 0 1-.98 1.29q-11.65 3.97-23.37 6.21-1.71.32-.72-1.11 2.81-4.03 5.5-7.37 2.23-2.77-.89-4.77-4.78-3.07-7.27-3.94"/><path stroke="#7c7871" vector-effect="non-scaling-stroke" d="M253.04 357.25q7.6-8.46 14.41-17.58a.26.26-63.1 0 0-.13-.4q-12.23-3.92-24.47-8.19-12.69-4.42-26.08-3.16-3.41.32-5.58 3.27-2.66 3.61-9.13 10.87-10.47 11.74-25.31 16.98"/><path stroke="#726761" vector-effect="non-scaling-stroke" d="M317.04 138.5q-.33.88-1.14 1.38-4.28 2.64-7.77 6.12a.89.89-41.7 0 0-.07 1.18q2.97 3.77 6.52 6.99 3.41 3.1 4.86 5.39 2.01 3.2.25 7.13-1.6 3.55-5.1 7.67-1.63 1.91-2.39 3.04-1.33 1.95-2.01 3.29-1.03 2.03-.69 4.25.27 1.8 2.03 3.48 2.53 2.43 5.51 4.33"/><path stroke="#736862" vector-effect="non-scaling-stroke" d="M317.25 196.46q-9.71 4.12-20.25 4.58"/><path stroke="#7f715c" vector-effect="non-scaling-stroke" d="M241.46 159.5q2.11-15.84 2.6-31.81.01-.21-.31-.65"/><path stroke="#7b7874" vector-effect="non-scaling-stroke" d="M241.21 369.25q-15.07 2.74-30.21 5-1.86.28-10 .71"/><path stroke="#b8b5bb" vector-effect="non-scaling-stroke" d="M251.25 399.29q6.89 7.73-2.81 11.15-5.44 1.91-21.65 5.74-5.24 1.24-11.6 4.76-6.26 3.46-6.69 10.27"/><path stroke="#bebdc6" vector-effect="non-scaling-stroke" d="M208.5 431.21q-15.43 8.43-30.79 17.02-7.88 4.4-14.25 10.77"/><path stroke="#abaab3" vector-effect="non-scaling-stroke" d="M163.46 459q-1.19-.76-1.96-.5-13.8 4.71-20 6.25-7.47 1.86-16-.29"/><path stroke="#a09590" vector-effect="non-scaling-stroke" d="M125.5 464.46q2.15-6.7 8.31-7.9 8.7-1.68 17.39-3.4 2.48-.5 3.96-1.27 1.88-.99 3.44-2.41 1.73-1.58 3.43-5.09 6.29-13.04 13.53-25.58 1.87-3.24 8.9-12.81"/><path stroke="#a6a0a1" vector-effect="non-scaling-stroke" d="M125.5 464.46q-11.42.86-21.99-3.38-4.42-1.77-5.32-2.02-7.49-2.02-11.38 4-3.03 4.7-6.52 13.19"/><path stroke="#7c7062" vector-effect="non-scaling-stroke" d="M81.5 453.71q-2.03 11.19-1.21 22.54"/><path stroke="#878585" vector-effect="non-scaling-stroke" d="M80.29 476.25q-.74 4.85-4.75 7.75"/><path stroke="#433f3b" vector-effect="non-scaling-stroke" d="M75.54 484q-.61-.54-.54-1 .51-3.22.5-9.25-.02-17.14-.97-33.76a.86.85 82.2 0 0-1.03-.79q-11.03 2.31-21.69 5.11-6.31 1.66-8.56 1.9"/><path stroke="#84827e" vector-effect="non-scaling-stroke" d="M127.75 320.54q-3.6-1.61-7.44-2.33-4.01-.76-6.38.84-2.34 1.58-2.86 4.56-.12.66-.2 5.15-.1 5.56.13 13.24.11 3.58-.79 8"/><path stroke="#827562" vector-effect="non-scaling-stroke" d="M436.75 269.71q-.65.16-.65.73-.01 12.18 4.85 23.33 2.43 5.6 4.88 11.19 5.61 12.79 5.71 26.79 0 .76-.58 1.25"/><path stroke="#9b8662" vector-effect="non-scaling-stroke" d="M450.96 333q-3.16-2.1-5.15-4.81-3.52-4.79-7.53-8.45-1.72-1.57-3.06-1.65-1.95-.11-3.49 1.87-1.27 1.62-2.84 2.96-4.62 3.95-5.63 10.08-.37 2.26.01 5.51.43 3.64 1.04 5.43 3.97 11.59 8.13 23.13.6 1.66-.08 3.29-3.22 7.8-9.24 14.01-5.95 6.12-10.71 14.12-.91 1.53-.47 3.24 2.05 8.14 3.78 17.12 1.47 7.68.27 15.48a4.41 4.38 70.4 0 1-1.05 2.23l-8.04 8.96q-1.28 1.43-2.55-.01-2.04-2.34-2.76-5.8-.45-2.16.51-4.79 1.68-4.57 3.43-9.12 3.86-9.98.09-19.96-1.96-5.2-4.71-10.02-.29-.51-.87-.57"/><path stroke="#a69781" vector-effect="non-scaling-stroke" d="M400.04 395.25q.1-2.37.49-4.7.58-3.41.66-4.64.69-10.37-1.69-20.91-2.23-9.87-4.75-23.5-1.49-8.09-.55-18.26a1.27.77-72.9 0 0-.23-.91l-2.01-2.08"/><path stroke="#b0a28e" vector-effect="non-scaling-stroke" d="M400.04 395.25q-1.36 14.39-3.79 22-6.78 21.23-9.5 31.25-2.53 9.33-2.54 20.25"/><path stroke="#b8ad9c" vector-effect="non-scaling-stroke" d="M384.21 468.75l-4.67-2"/><path stroke="#c3bfc0" vector-effect="non-scaling-stroke" d="M379.54 466.75q.02-1.8-.5-3.51-2.91-9.77-6.65-18.69a1.5 1.5 80.5 0 0-1.29-.92q-18.09-1.03-33.84-1.84-27.25-1.41-54.96-5.39-1.57-.23-.26-1.12 9.96-6.75 14.58-17.69 8.41-19.93 2.6-40.95a1.53 1.53 80.6 0 0-1.56-1.12q-10.91.6-20.61 6.28-9.96 5.83-19.11 12.89-4.32 3.33-6.69 4.6"/><path stroke="#b0a9a8" vector-effect="non-scaling-stroke" d="M251.25 399.29q-8.67-7.8-20.02-10.79a1.13 1.13 25.1 0 1-.63-1.74q5.45-7.81 10.34-16.07.48-.81.27-1.44"/><path stroke="#86827a" vector-effect="non-scaling-stroke" d="M241.21 369.25q6.29-5.63 11.83-12"/><path stroke="#c4c8d7" vector-effect="non-scaling-stroke" d="M219.25 479.04q-9.34-3.17-12.25-3.79-9.13-1.94-16.5-.25-10.89 2.49-21.81 9.91-11.35 7.7-20.25 11.53-14.05 6.04-29.34 3.54-1.37-.23-.47-1.29 3.37-3.95 7.81-7.5 4.53-3.63 18.62-13.63 9.97-7.07 16.63-15.37.79-.99 1.77-3.19"/><path stroke="#c0b9af" vector-effect="non-scaling-stroke" d="M379.54 466.75q-5.91 16.22-17.55 28.99-10.27 11.26-17.8 18.45-8.97 8.56-15.23 17.06"/><path stroke="#c4c1bd" vector-effect="non-scaling-stroke" d="M328.96 531.25q-8.45 7.2-7.06 18.51.86 7.03 2.91 12.93 4.73 13.6 7.48 26.06"/><path stroke="#bec0cc" vector-effect="non-scaling-stroke" d="M332.29 588.75q-4.4 1.63-9.04 2.19a.8.8-19.7 0 1-.77-.36q-11.43-17.83-26.17-36.39-9.35-11.79-18.27-26.44"/><path stroke="#d9dbe5" vector-effect="non-scaling-stroke" d="M278.04 527.75q.92-.03 1.68.52 6.84 4.95 13.92 9.55 7.16 4.65 13.17-1.51 9.3-9.54 21.22-19.98 7.66-6.7 10.87-9.75 5.3-5.04 10.42-10.26 8.3-8.45 14.03-18.8 5.37-9.69 4.15-20.79a1.11 1.11-45 0 0-.98-.98q-12.6-1.37-25.03-3.7-21.72-4.05-43.74-7.84a1.76 1.75-70.4 0 0-1.84.88q-7.42 13.39-10.86 28.32-1.21 5.28-2.88 19.77-1.95 16.94-4.67 33.78"/><path stroke="#bec0cc" vector-effect="non-scaling-stroke" d="M277.5 526.96q-7.29-8.26-9.06-19.2-1.55-9.57-1.99-20.56a2.1 2.09-80.5 0 0-1.32-1.86q-7.54-3-16.01-2.75-5.17.16-5.25.16-4.81.01-9.62.03-8 .05-15-3.74"/><path stroke="#d1d3df" vector-effect="non-scaling-stroke" d="M219.25 479.04q7.32-7.38 15.57-13.74 1.6-1.22-.4-1.36l-20.56-1.42q-1.57-.11-.62-1.36 1.2-1.59 3.05-1.99 3.83-.85 7.74-.96 5.21-.15 6.79-.93 3.44-1.71 4.22-5.98.02-.11.09-2.21.09-2.64 2.69-3.51 4.57-1.52 6.32-3.86 2.13-2.83-1.35-3.52-4.53-.88-8.06-1.21-8.68-.81-17.23-2.49-3.61-.71-9-3.29"/><path stroke="#b6b5b6" vector-effect="non-scaling-stroke" d="M332.29 588.75q5.36 8.92 10.5 17.97 6.79 11.95 20.25 13.9.08.02 1.91.18 2.88.26 5.18 1.77 1.86 1.21 1.06 3.1l-5 11.91q-.75 1.77-.21 3.34 1.23 3.56 4.08 7.02 1.45 1.75 2.32 3.06 1.38 2.1 1.71 3 .7 1.93-.65 3.69-.75.96-4.33 4.46a1.47.94 12.3 0 1-.86.32q-1.02.04-1.5 1.07"/><path stroke="#9398ad" vector-effect="non-scaling-stroke" d="M78.46 523.25q.59-1.25 2.29-1.5 12.6-1.86 24.38-6.54 1.06-.42.15-1.11-11.54-8.75-24.08-15.52-2.93-1.58-5.17-2.95-4.07-2.5-5.09-3.07-1.13-.62-1.23-1.56"/><path stroke="#6c6e7a" vector-effect="non-scaling-stroke" d="M75.54 484l-5.83 7"/><path stroke="#4f5263" vector-effect="non-scaling-stroke" d="M69.71 491l-14.92 14.34q-.04.03-.51.82l-.53.88"/><path stroke="#94846a" vector-effect="non-scaling-stroke" d="M466.75 362.79q.15 1.17-.44 2.77-2.37 6.44-3.74 13.7-.92 4.85-1.42 14.06-.83 15.23-1.9 21.68-3.01 18.12-16.95 31.55a2.16 2.16 36.1 0 1-2.45.38q-10.74-5.33-22.12-9.69-1.47-.56-.54.71 1.5 2.07 2.93 4.51 1.62 2.76 2.16 4.9 1.93 7.6-3.86 13.56-5.85 6-7.48 7.27-8.94 6.9-13.19 14.56-4.26 7.67-3.5 16.51.16 1.85 1.6 3.01 2.83 2.27 5.02 4.95 2.55 3.12 3.38 6.08 1.47 5.2-1.31 10.14-2.75 4.87-9.44 14.77"/><path stroke="#ad9c7d" vector-effect="non-scaling-stroke" d="M393.5 538.21q-3.34-.83-5.19-2.27-2.76-2.15-2.15-5.23.28-1.46 2.38-4.5 1.63-2.36 3.16-4.79a.49.49 17.7 0 0-.39-.75q-5.39-.29-10.19 2.51a1.56 1.35 89.5 0 0-.62.73q-3.63 9.03-10.94 12.65-4.16 2.07-7.6.11-2.75-1.57-3.8-5.52-1.53-5.8.57-11.29 1.18-3.05 5.22-7.36 3.71-3.94 7.32-7.96 10.03-11.15 11.99-25.91.05-.33.63-4.23.42-2.8.32-5.65"/><path stroke="#656364" vector-effect="non-scaling-stroke" d="M499.75 315.21q.89 7.94 3.74 15.43 2.27 5.98 4.49 11.99 4.67 12.64 1.86 25.83-.63 2.95-1.35 5.87-.91 3.73-2.19 5.54-3.68 5.22-11.04 4.27-9.53-1.24-15.7-9.02a1.34 1.34 62.8 0 1 .68-2.12q5.77-1.64 10.93-4.64 4.56-2.65 6.72-7.31.98-2.14-1.04-3.34-2.29-1.36-4.82-1.78-2.02-.33-5 .35-9.74 2.24-18.82 6.47"/><path stroke="#7b736a" vector-effect="non-scaling-stroke" d="M468.21 362.75l-1.46.04"/><path stroke="#8d816f" vector-effect="non-scaling-stroke" d="M466.75 362.79q-4.12.64-5.66-3.11-2-4.88-2.65-10.12-.67-5.38-3.75-12.25-.73-1.61-3.73-4.31"/><path stroke="#ac9c81" vector-effect="non-scaling-stroke" d="M441 514.21q1.05.45 4.75.79 6.38.58 14.1 1.39.83.09.15.57-6.41 4.58-10.39 10.93-3.17 5.04-5.86 10.36-3.67 7.25-8.33 13.9-.04.06-1.54 2-2.96 3.84-2.38 8.1.74 5.41 4.77 13.49 1.95 3.9 4.79 11.45 1.13 2.99.75 5.7-.22 1.54-2.15 4.14-4.17 5.62-3.46 12.57.63 6.23.62 6.34-.54 4.52-4.92 7.19-7.64 4.66-11.44 12.75-3.25 6.91.35 12.81 3.65 5.96 10.51 10.66 3.57 2.43 3.67 2.51 3.78 2.68 7.63 5.16 1.04.67 1.07-.57.1-4.99.52-9.95.53-6.31 3.54-12.52a2.87 2.86-85.2 0 1 1.74-1.48q9.73-2.96 12.83 6.06 1.16 3.37.97 6.94-.75 14.29-9.97 25.09-3.82 4.47-9.52 5.98-1.03.27.02.44 4.13.68 7.64 3.05 3.86 2.62 3.04 7.44-.73 4.29-1.25 13.46"/><path stroke="#b9ae99" vector-effect="non-scaling-stroke" d="M404.75 700.54q.45.03.49-.29.64-5.81-.43-11.56-.85-4.6-4.18-15.73-.67-2.25-1.38-9.71-1.23-12.9 4.73-23.04 3.87-6.6 6.82-13.65 3.39-8.13 1.43-18.18a1.23 1.22-11.5 0 1 .95-1.43q4.89-1.04 8.77-3.02a1.41 1.41-35.7 0 0 .37-2.24q-2.72-2.77-6.57-4.94-2.64-1.47-2.89-4.01-.17-1.77 1.35-3.58 1.43-1.7 2.98-2.72 3.93-2.6 6.11-5.91 1.83-2.75.01-6.09-2.19-4.03-4.45-6.06-6.09-5.47-13.61-10.77a1.38 1.37 45.4 0 0-1.54-.02q-3.57 2.36-6.32 5.08-1.86 1.83-2.45 3.36-.92 2.35.19 4.4.98 1.8 4.23 3.55 4.46 2.4 9.22 3.43 1.58.34.31 1.34l-17.97 14.2a1.03 1.02 49.6 0 0-.11 1.5q1.7 1.86 2.94 4.45 4.13 8.69-1.09 15.22-2.12 2.65-4.94 4-3.13 1.49-6.47 1.13-4.34-.47-8.07-2.99-2-1.35-6.55-5.31-3.2-2.78-5.82-6.12-2.32-2.96-2.67-5.19-.63-3.93 3.61-5.64 5.4-2.18 13.94-2.31a.66.64 6.3 0 0 .62-.48q1.75-7.37-2.27-13.76-2.69-4.29-7.48-8.01-6.51-5.06-9.37-6.85-10.12-6.32-19-14.28-7.29-6.53-9.23-17.06"/><path stroke="#ccd0dd" vector-effect="non-scaling-stroke" d="M278.04 527.75l-.54-.79"/><path stroke="#76706d" vector-effect="non-scaling-stroke" d="M525.79 540.25q-.26 1.1-1.35 1.94-4.08 3.12-7.32 7.72-3.39 4.81-.31 9.78 1.25 2.01 5.63 5.42 4.88 3.8 5.94 5.02 5.55 6.36 3.92 15.35-.66 3.62 1.88.96 6.17-6.44 14.32-9.98"/><path stroke="#787066" vector-effect="non-scaling-stroke" d="M548.5 576.46q.72.88.69 2.04-.21 10.77-1.22 21.5-1.55 16.38-10.68 29.48-1.35 1.95.95 2.52 4.52 1.11 9.13 1.15 2.86.03 9.06-1.15 6.22-1.18 12.53-1.75"/><path stroke="#92846e" vector-effect="non-scaling-stroke" d="M568.96 630.25q-.66 7.39-1.46 9.5-3.08 8.11-10.59 9.52-4.44.84-10.22-.91-5.02-1.53-9.44-4.51-1.22-.82-1 .63.83 5.5 1.2 11.02.64 9.51-6.81 15a2.78 2.76 38.9 0 1-2.8.29q-7.66-3.51-14.28-8.6-4.25-3.27-8.04-4.86-3.44-1.44-6.65-.45-4.27 1.32-7.08 5.2-1.25 1.73-2.34 3.29-.55.78-.92-.1-3-7-4.28-14.27-1.04-5.92 2.37-10.83 1.78-2.57 5.22-4.85 3.15-2.1 6.38-3.35 1.89-.74 2.24-2.73 2.26-12.89-4.13-23.62-1.31-2.21-2.79-3.16-1.95-1.24-4.22-1.18-2.24.07-5.2 1.95-2.42 1.53-4.5 3.42-.77.69-.85-.34-.32-4.18-.49-8.06-.51-11.43-5.04-3.75-1.64 2.77-1.67 2.82-3.25 5.1-6.81 10.06-1.6 2.23-2.03-.48-4.04-25.29 6.22-49.21 6.87-16.02 22.38-23.88 1.3-.66-.15-.85-3.95-.51-7.83-2.25a1.95 1.94 18.4 0 1-1.1-2.19q.69-3.22 1.69-6.33 1.31-4.11-1.32-8.88-.01-.03-.93-1.46-1.88-2.95-.8-5.74.81-2.09 3.52-4.01 2.24-1.58 4.87-2.52 6.09-2.18 11.79-5.27 2.3-1.25 1.27-3.65-.84-1.95-2.76-3.09-1.47-.87-3.84-.7-10.49.76-22.74 4.13-20.84 5.73-32 23.21"/><path stroke="#9c8e77" vector-effect="non-scaling-stroke" d="M441 514.21q-5.59 7.87-13.31 10.73-11.47 4.25-13.77 15.12-.83 3.93-1.78 5.01-2.27 2.6-6.33.87-5.69-2.42-12.31-7.73"/><path stroke="#464549" vector-effect="non-scaling-stroke" d="M641 383.21q-5.37 9.16.44 17.6 5.13 7.46 13.56 16.4"/><path stroke="#606067" vector-effect="non-scaling-stroke" d="M655 417.21q-.83.34-.5 1.29 2.42 7.02 2.61 14.44.14 5.37-2.03 10.98a2.06 2.04-84.8 0 1-1.5 1.26q-8.13 1.65-14.83 1.32-5.75-.29-13.79 1.04-1.54.26-2.23.92-1.41 1.35.83 2.98 3.5 2.53 9.34 5 .36.15.48.37.29.49-.64.56-7.37.59-14.01 1.08-2.15.15-1.27 2.12 1.81 3.99 4.44 6.96a1.04 1.04-30.9 0 1-.42 1.67q-8.18 2.97-16.86 6.74-10.83 4.7-18.62 13.54-6.47 7.33-12.06 14.59a.99.97-46.6 0 1-1.52.05q-3.76-4.34-6.88-5.53-3.55-1.36-3.81 2.44-.53 7.86-1.73 14.97-.63 3.72-3.76 6.85-2.68 2.68-3.2 3.54-1.35 2.26-1.54 4.61-.27 3.41.34 10.91.16 1.88-.02 3.68-.18 1.74-.37 3.69a.62.6-76.7 0 1-.82.52l-24.84-9.55"/><path stroke="#6c665e" vector-effect="non-scaling-stroke" d="M525.79 540.25q-9.07-9.93-16.94-20.76-1.19-1.64-.09-3.34 7.87-12.2 15.27-24.56 3.4-5.68 4.97-10.59 3.12-9.77-1.08-18.94-1.76-3.85-2.72-5.23-1.97-2.83-5.2-3.33-4.94-.76-13.56 1.69-2.77.78-6.24.57-3.4-.2-5.28-1.94-2.22-2.06-2.76-5.4-.63-3.92-1.85-5.98-11.35-19.16-14.56-41.69-2.62-18.42-7.54-38"/><path stroke="#615f5f" vector-effect="non-scaling-stroke" d="M700.04 526.5q-1.55-.31-2.45-1.58-2.43-3.46-5.84-5.85-1.93-1.35-3.37-1.41-2.41-.11-3.32 2.65-2.3 6.95-3.14 16.28-.23 2.61-.59 4.29-.46 2.16-1.03 4.2-.39 1.38-.96.08l-9.88-22.76a.49.48 52.9 0 0-.82-.12q-5 6.17-5.08 13.78-.04 3.86 1.86 9.71 1.5 4.61 3.49 9.31a.85.84 73.5 0 1-.62 1.16q-16.8 3.22-27.11 16.66-6.4 8.35-6.62 16.91-.21 8.6 4.38 15.25.82 1.2 2.56.98"/><path stroke="#887e70" vector-effect="non-scaling-stroke" d="M634.5 613.04q-7.34-4.59-11.25-13.04-3.59-7.75-9.52-16.97-1.05-1.62-1.88-2.19-1.41-.95-3-.58-1.57.37-2.92 2.43-2.14 3.29-3.5 7.01a.94.94-63.9 0 1-1.39.48q-8.78-5.62-15.73 1.88-4.9 5.3-8.09 12.93-1.07 2.55-4.37 12.54-2.08 6.32-3.89 12.72"/><path stroke="#6b6a6f" vector-effect="non-scaling-stroke" d="M549.96 575.75q-.87.05-1.46.71"/><path stroke="#444449" vector-effect="non-scaling-stroke" d="M728.71 458.5q-10.34-1.42-20.76-.24-2.9.32-1.51 2.88.65 1.18 1.82 2.47 1.55 1.71 1.89 2.35 1.59 3.05-2.15 4.29-6.18 2.05-13.25-.25-2.41-.78-4.11-2.1-2.51-1.94-2.57-1.98-11.71-7.14-20.76 3.64-7 8.35-10.27 19.44"/><path stroke="#525051" vector-effect="non-scaling-stroke" d="M657.04 489q-3.02 13.01-11.53 23.27-5.33 6.42-12.45 13.04-3.23 3.01-16.26 15.49-6.54 6.27-10.99 13.01-5.3 8.04-11.22 14.03-10.65 10.8-19.37 23.19a.57.56-59.5 0 1-.72.19q-13.09-6.44-24.54-15.47"/><path stroke="#505057" vector-effect="non-scaling-stroke" d="M549.96 575.75q3.29-5.37 6.73-8.81 13.32-13.35 16.68-33.06a1.02 1.02 7.6 0 1 1.1-.84q7.07.7 13.72 2.52 3.26.9 5.64.38a1.2 1.14-80.2 0 0 .74-.55q1.78-2.97 1.39-6.4-.27-2.37-.28-2.51-.17-2.74-.5-5.92-.2-1.88 1.68-1.98 5.15-.3 9.82-1.91 4.18-1.44 6.53-4.73 1.66-2.32 2.68-7.22 1.16-5.64 1.34-11.07a2.02 2.01-12.5 0 1 1.11-1.73q5.89-2.94 11.14-5.85 7.38-4.1 10.07-7.38 4.68-5.71 4.7-13.96a1.72 1.71-5.5 0 1 1.39-1.68q8.46-1.69 15.92-7.29 11.07-8.31 21.6-18.02a.58.57 49.6 0 0 .06-.78q-5.29-6.64-12.53-11.15-5.41-3.36-15.69-8.6"/><path stroke="#605e61" vector-effect="non-scaling-stroke" d="M707.46 512.75l-1.31-.94a1.45 1.17 55.9 0 0-.89-.27q-6.02.45-12.01-.32-8.85-1.13-11.52-9.54-1.37-4.3-2.25-8.73-1.07-5.44-5.31-7.04-2.81-1.06-7.86.11-4.74 1.1-9.27 2.98"/><path stroke="#6e7647" vector-effect="non-scaling-stroke" d="M217.66 363.7q3.08 1.22 6.09 1.04 12.1-.69 20.01-9.72 8.71-9.94-3.29-14.11a1.14 1.13-49.7 0 0-.91.08q-10.34 5.68-18.34 14.27-1.63 1.74-2.48 3.36-.94 1.75-1.65 3.85a.98.98-70 0 0 .57 1.23"/></g><path fill="#a4a4a6" d="M87.25 22.71q-1.07.5-.43 1.09.56.51.64.61 20.74 26.41 41.85 52.53 3.49 4.32 18.98 21.56-2.63 5.71-6.6 8.69-4.11 3.07-8.05-.33-2.62-2.26-4.68-5.07-4.52-6.17-9.8-11.7-3.87-4.06-7.97-4.28-5.28-.28-4.38 5.13 1.37 8.19 4.27 13.99 3.77 7.52 5.42 10.32 4.69 7.96 7.33 16.8 1.23 4.1 1.17 9.45-.05 4.88.55 15.33.36 6.3.27 6.82-.72 4.66-6.82 4.35-1.46-.07-3.75-1.21-6.67-17.11-13.42-34.18-9.13-23.07-16.75-46.68-6.23-19.3-9.95-39.23-1.04-5.6-.7-9.98.39-5.03 1.63-9.95.76-3.04 2.89-5.35 1.76-1.9 3.69-.96z"/><path fill="#887a63" d="M87.25 22.71q19.99 6.43 33.19 19.35 12.7 12.43 24.77 25.48 8.26 8.94 18.04 16.17-.56.54-.5 2.04.47 11.93 5.57 21.37 2.83 5.23 6.18 10.15 6.51 9.56 12.68 19.35 4.98 7.9 7.42 16.78.62 2.23 2.08 12.82 1.6 11.51 5.85 22.4 2.34 6.01 4.69 12.01 5.78 14.77 5.26 31.26-.05 1.65 1.03.41 9.4-10.68 12.57-23.84 3.86-15.97 7.67-31.96 1.82-7.64 7.71-17 .48 2.3.07 4.53-.71 3.95-.72 4-1.49 16.57-1.74 33.22-.27 17.76 4.03 35.4.35 1.46 1.11.16 5.85-9.99 14.04-18.06 7.05-6.95 14.21-13.8 6.15-5.88 11.28-12.26a1.16 1.16 40.3 0 1 1.69-.14q5.35 4.86 11.57 8.49-1.03.66-1.56 2.4-.9 2.96-4.37 11.7-1.86 4.68-6.84 5.47-3.85.62-7.73.16-5.42-.65-10.26 1.74-2.46 1.2-1.15 3.61 1.13 2.1 3.75 3.78 4.76 3.08 9.41 6.31-.4-.03-.68.17a1.36.34-39.8 0 1-.81.39q-13.65.74-14.57 14.49-.62 9.23-.41 20a.77.77 6.8 0 1-.97.76q-5.82-1.55-11.9-3.29-10.06-2.89-11.77-3.62-6.47-2.75-11.41-8.1-4.4-4.76-8.72-10.69a1.41 1.4-42.2 0 0-2.18-.1q-5.16 5.77-10.75 9.55-3.76 2.54-3.54-2.28.53-11.51-.29-22.98a.6.59-18.9 0 0-.93-.45q-3.91 2.59-8.28 4.2-4.23 1.55-6.53-.81-1.56-1.59-1.99-5.29-.45-3.82-.02-8.41 1.03-10.88 1.49-14 1.01-6.84.72-13.75 4.32-35.96-15.5-65.75.17-.85-.02-1.19-8.03-14.29-19.59-25.91-.54-.55-1.31-.65-15.49-17.24-18.98-21.56-21.11-26.12-41.85-52.53-.08-.1-.64-.61-.64-.59.43-1.09z"/><path fill="#726756" d="M436.21 241q-.96-.16-1.77-1.19-2.05-2.58-5.09-3.17-2.44-.48-5.55.84-3.49 1.47-5.86 3.71-13.93 13.12-22.01 30.51-.79 1.7-.94-.17-.69-8.55-.55-18.03.03-1.87-.69-3.54 7.87-23.2 6.56-47.71-.44-8.32-3.2-16.16-.69-1.95-2.92-5.28-3.11-4.63-8.7-5.06a.67.67-.7 0 0-.72.73q1.01 9.37 1.57 19.01.66 11.33-.96 22.44-1.61 11.09-5.42 19.17-5.35 11.35-15.16 20.43a1.29 1.29-44.7 0 0-.01 1.89q9.78 9.23-.73 17.39-3.42 2.66-9.57 4.38-.08.02-2.8.94-2.66.89-4.88.06-16.99-6.39-24.06-8.19-8.29-2.11-17.75 1.04-.93-.04-1.31-.48-3.09-3.6-5.19-8.81-1.39-3.45-4.21-15.75 5.25-6.82 10.93-13.29 3.73-4.25 8.57-7.23 1.47-.91 3-.12 9.76 5.06 16.32 14.04 2.91 3.99 5.65 8.11a1.26 1.25 52.5 0 0 1.88.25q3.39-3 4.29-7.35.36-1.77.06-6.33-.21-3.16-.21-6.33 0-6.8 3.82-11.63a1.16 1.15 38.7 0 0-.18-1.61q-8.93-7.34-18.61-13.07-3.54-2.1-12.56-8.98l-.21-3.71q5.74 1.96 11.3 4.38 5.59 2.44 10.91 2.62 7.32.24 11.23-6.04 1.54-2.48.52-5.96-2.52-8.63-4.94-23.01-2.89-17.15-5.79-34.58a1.12 1.11 10.3 0 0-.53-.76q-2.83-1.7-5.62-2.84-5.04-2.06-7.9 2.36-3.17 4.9-7.46 8.84-.74.68-1.72.74 2.68-11.81 2.51-24.97a.44.43 84.4 0 0-.51-.42q-4.63.84-8.76 2.16-2.49.81-8.24 3.54-9.83 4.66-20.31 7.69a1.4 1.4 66.2 0 1-1.6-.62q-4.63-7.56-3.9-16.35.21-2.62 1.77-7.82 1.15-3.84 2.18-7.73 1.66-6.25-1.93-11.23-3.92-5.44-10.25-8.54 3.46-6.25 7.86-11.86 5.41-6.9 13.08-10.25 7.21-3.15 13.74-3.28 7.65-.15 14.01 4.74 4.04 3.12 8.25 8.75 4.61 6.18 19.5 31.03 6.82 11.38 10.45 17.07 21.36 33.37 48.05 66.4 13.71 16.97 21.07 25.82 5.64 6.79 7.32 9.75 3.17 5.58 4.17 11.62 1.2 7.26.71 17z"/><path fill="#91897f" d="M268 74.21q6.33 3.1 10.25 8.54 3.59 4.98 1.93 11.23-1.03 3.89-2.18 7.73-1.56 5.2-1.77 7.82-.73 8.79 3.9 16.35a1.4 1.4 66.2 0 0 1.6.62q10.48-3.03 20.31-7.69 5.75-2.73 8.24-3.54 4.13-1.32 8.76-2.16a.44.43 84.4 0 1 .51.42q.17 13.16-2.51 24.97-.33.88-1.14 1.38-4.28 2.64-7.77 6.12a.89.89-41.7 0 0-.07 1.18q2.97 3.77 6.52 6.99 3.41 3.1 4.86 5.39 2.01 3.2.25 7.13-1.6 3.55-5.1 7.67-1.63 1.91-2.39 3.04-1.33 1.95-2.01 3.29-1.03 2.03-.69 4.25.27 1.8 2.03 3.48 2.53 2.43 5.51 4.33l.21 3.71q-9.71 4.12-20.25 4.58-6.22-3.63-11.57-8.49a1.16 1.16 40.3 0 0-1.69.14q-5.13 6.38-11.28 12.26-7.16 6.85-14.21 13.8-8.19 8.07-14.04 18.06-.76 1.3-1.11-.16-4.3-17.64-4.03-35.4.25-16.65 1.74-33.22.01-.05.72-4 .41-2.23-.07-4.53 2.11-15.84 2.6-31.81.01-.21-.31-.65.98-1.64 1.62-3.46 5.09-14.53 11.4-28.57 4.86-10.81 11.23-20.8z"/><path fill="#6d5839" d="M163.25 83.71q26.55 15.46 53.06 30.98 10.95 6.41 27.44 12.35.32.44.31.65-.49 15.97-2.6 31.81-5.89 9.36-7.71 17-3.81 15.99-7.67 31.96-3.17 13.16-12.57 23.84-1.08 1.24-1.03-.41.52-16.49-5.26-31.26-2.35-6-4.69-12.01-4.25-10.89-5.85-22.4-1.46-10.59-2.08-12.82-2.44-8.88-7.42-16.78-6.17-9.79-12.68-19.35-3.35-4.92-6.18-10.15-5.1-9.44-5.57-21.37-.06-1.5.5-2.04z"/><path fill="#908784" d="M148.29 98.5q.77.1 1.31.65 11.56 11.62 19.59 25.91.19.34.02 1.19-1.54-.27-2.88-1.09-6.45-3.93-13.52-6.57-3.33-1.25-6.55-.64-2.76.52-3.26 3.29-.4 2.2-.15 4.38.18 1.59 1.36 4.08 5.67 11.97 6.5 25.3.4 6.34 1.51 12.56 1.37 7.7 4.09 11.83 5.47 8.28 16.69 10.61 8.73 1.81 11.71 2 .29 6.91-.72 13.75-.46 3.12-1.49 14-.43 4.59.02 8.41.43 3.7 1.99 5.29 2.3 2.36 6.53.81 4.37-1.61 8.28-4.2a.6.59-18.9 0 1 .93.45q.82 11.47.29 22.98-.22 4.82 3.54 2.28 5.59-3.78 10.75-9.55a1.41 1.4-42.2 0 1 2.18.1q4.32 5.93 8.72 10.69 4.94 5.35 11.41 8.1 1.71.73 11.77 3.62 6.08 1.74 11.9 3.29a.77.77 6.8 0 0 .97-.76q-.21-10.77.41-20 .92-13.75 14.57-14.49a1.36.34-39.8 0 0 .81-.39q.28-.2.68-.17 9.12 5.6 16.04 13.79 2.82 12.3 4.21 15.75 2.1 5.21 5.19 8.81.38.44 1.31.48-.54.65-.06.92.4.23.46.28 5.3 4.47 11.18 8.17 6.24 3.91 9.23 7.53 3.71 4.48 4.44 9.56.61 4.22.71 11.75-7.03-2.1-11.27-5.19-6.39-4.64-9.19-6.31-7.93-4.73-15.29.72-1.63 1.21-3.3 2.38-1.71 1.2-3.69 1.3-6.37.33-12.51-1.16-4.26-1.03-6.97-2.87-3.2-2.15-5.42-5.48-1.63-2.46-3.34-4.86-3.57-5.04-9.62-6.33-5.43-1.15-10.88.05a1.25 1.24 79.7 0 0-.96 1.39q.87 6.06 3.06 10.46 1.07 2.14 1.37 4.52.54 4.29-3.13 5.35-2.37.69-6.32 1.28-7.4 1.11-15 5-4.54 2.33-17.06 10.69-11.31 7.55-25.7 4.9a1.09 1.05 29.5 0 0-.88.23q-9.82 8.12-16.04 19.25-2.94 5.27-1.82 10.18 1.02 4.44 5.96 5.75.6 7.12.04 9.25-.86 3.28-3.42 4.78-1.7.99-5.34 1.03-9.67.12-19.42-1.08a.39.38 12.2 0 1-.32-.49q4.41-14.67 2.84-29.97-1.75-17 2.54-34.04.43-1.7-.37-3.26-2.15-4.21-3.13-8.96-.94-4.59-.07-8.53 1.02-4.57 3.75-7.92 5.2-6.37 14-11.5 2.71-1.57 8.32-5.69.05-.04 2.92-2.04 5.13-3.58 8.51-8.69 1.06-1.61-.86-1.41-5.45.58-10.63.03-2.24-.24-1.87-2.53l2.05-12.54a.45.44 5 0 0-.44-.51l-28.3-.42a2.02 1.3 51.1 0 1-.91-.3q-.73-.45-1.6-.42l-4-10.25q6.54 2.12 11.75.46 4.82-1.54 6.7-5.92 1.33-3.1 1.11-8.3-.53-12.38-9.5-21.09-6.26-6.1-15.02-3.69l-7.04-23.71q2.29 1.14 3.75 1.21 6.1.31 6.82-4.35.09-.52-.27-6.82-.6-10.45-.55-15.33.06-5.35-1.17-9.45-2.64-8.84-7.33-16.8-1.65-2.8-5.42-10.32-2.9-5.8-4.27-13.99-.9-5.41 4.38-5.13 4.1.22 7.97 4.28 5.28 5.53 9.8 11.7 2.06 2.81 4.68 5.07 3.94 3.4 8.05.33 3.97-2.98 6.6-8.69z"/><path fill="#aaa9af" d="M169.21 126.25q19.82 29.79 15.5 65.75-2.98-.19-11.71-2-11.22-2.33-16.69-10.61-2.72-4.13-4.09-11.83-1.11-6.22-1.51-12.56-.83-13.33-6.5-25.3-1.18-2.49-1.36-4.08-.25-2.18.15-4.38.5-2.77 3.26-3.29 3.22-.61 6.55.64 7.07 2.64 13.52 6.57 1.34.82 2.88 1.09z"/><path fill="#524542" d="M317.04 192.75q-2.98-1.9-5.51-4.33-1.76-1.68-2.03-3.48-.34-2.22.69-4.25.68-1.34 2.01-3.29.76-1.13 2.39-3.04 3.5-4.12 5.1-7.67 1.76-3.93-.25-7.13-1.45-2.29-4.86-5.39-3.55-3.22-6.52-6.99a.89.89-41.7 0 1 .07-1.18q3.49-3.48 7.77-6.12.81-.5 1.14-1.38.98-.06 1.72-.74 4.29-3.94 7.46-8.84 2.86-4.42 7.9-2.36 2.79 1.14 5.62 2.84a1.12 1.11 10.3 0 1 .53.76q2.9 17.43 5.79 34.58 2.42 14.38 4.94 23.01 1.02 3.48-.52 5.96-3.91 6.28-11.23 6.04-5.32-.18-10.91-2.62-5.56-2.42-11.3-4.38z"/><path fill="#a18e70" d="M393.75 249.96Q386 268.48 385 285q-1.05 17.35 5.94 32.06 1 2.11 1.02 3.19-4.79-3.65-9.37-7.57-4.16-3.57-9.25-5.56-3.31-1.3-6.63-.12-2.7.29-6.02 1.69-1.87.78-12.12 4.39-4.29 1.51-8.82 1.94-4.7.46-8.79-1.77-.1-7.53-.71-11.75-.73-5.08-4.44-9.56-2.99-3.62-9.23-7.53-5.88-3.7-11.18-8.17-.06-.05-.46-.28-.48-.27.06-.92 9.46-3.15 17.75-1.04 7.07 1.8 24.06 8.19 2.22.83 4.88-.06 2.72-.92 2.8-.94 6.15-1.72 9.57-4.38 10.51-8.16.73-17.39a1.29 1.29-44.7 0 1 .01-1.89q9.81-9.08 15.16-20.43 3.81-8.08 5.42-19.17 1.62-11.11.96-22.44-.56-9.64-1.57-19.01a.67.67-.7 0 1 .72-.73q5.59.43 8.7 5.06 2.23 3.33 2.92 5.28 2.76 7.84 3.2 16.16 1.31 24.51-6.56 47.71z"/><path fill="#ada8a2" d="M127.25 229.04q-4.43-9.53-5-21.04-.51-10.25.04-17.5 8.76-2.41 15.02 3.69 8.97 8.71 9.5 21.09.22 5.2-1.11 8.3-1.88 4.38-6.7 5.92-5.21 1.66-11.75-.46z"/><path fill="#544744" d="M317.25 196.46q9.02 6.88 12.56 8.98 9.68 5.73 18.61 13.07a1.16 1.15 38.7 0 1 .18 1.61q-3.82 4.83-3.82 11.63 0 3.17.21 6.33.3 4.56-.06 6.33-.9 4.35-4.29 7.35a1.26 1.25 52.5 0 1-1.88-.25q-2.74-4.12-5.65-8.11-6.56-8.98-16.32-14.04-1.53-.79-3 .12-4.84 2.98-8.57 7.23-5.68 6.47-10.93 13.29-6.92-8.19-16.04-13.79-4.65-3.23-9.41-6.31-2.62-1.68-3.75-3.78-1.31-2.41 1.15-3.61 4.84-2.39 10.26-1.74 3.88.46 7.73-.16 4.98-.79 6.84-5.47 3.47-8.74 4.37-11.7.53-1.74 1.56-2.4 10.54-.46 20.25-4.58z"/><path fill="#907a55" d="M436.21 241q.77 14.26.04 25.5-.13 2.02.5 3.21-.65.16-.65.73-.01 12.18 4.85 23.33 2.43 5.6 4.88 11.19 5.61 12.79 5.71 26.79 0 .76-.58 1.25-3.16-2.1-5.15-4.81-3.52-4.79-7.53-8.45-1.72-1.57-3.06-1.65-1.95-.11-3.49 1.87-1.27 1.62-2.84 2.96-4.62 3.95-5.63 10.08-.37 2.26.01 5.51.43 3.64 1.04 5.43 3.97 11.59 8.13 23.13.6 1.66-.08 3.29-3.22 7.8-9.24 14.01-5.95 6.12-10.71 14.12-.91 1.53-.47 3.24 2.05 8.14 3.78 17.12 1.47 7.68.27 15.48a4.41 4.38 70.4 0 1-1.05 2.23l-8.04 8.96q-1.28 1.43-2.55-.01-2.04-2.34-2.76-5.8-.45-2.16.51-4.79 1.68-4.57 3.43-9.12 3.86-9.98.09-19.96-1.96-5.2-4.71-10.02-.29-.51-.87-.57.1-2.37.49-4.7.58-3.41.66-4.64.69-10.37-1.69-20.91-2.23-9.87-4.75-23.5-1.49-8.09-.55-18.26a1.27.77-72.9 0 0-.23-.91l-2.01-2.08q-.02-1.08-1.02-3.19-6.99-14.71-5.94-32.06 1-16.52 8.75-35.04.72 1.67.69 3.54-.14 9.48.55 18.03.15 1.87.94.17 8.08-17.39 22.01-30.51 2.37-2.24 5.86-3.71 3.11-1.32 5.55-.84 3.04.59 5.09 3.17.81 1.03 1.77 1.19z"/><path fill="#7a6e62" d="M131.25 239.29q.87-.03 1.6.42a2.02 1.3 51.1 0 0 .91.3l28.3.42a.45.44 5 0 1 .44.51l-2.05 12.54q-.37 2.29 1.87 2.53 5.18.55 10.63-.03 1.92-.2.86 1.41-3.38 5.11-8.51 8.69-2.87 2-2.92 2.04-5.61 4.12-8.32 5.69-8.8 5.13-14 11.5-2.73 3.35-3.75 7.92-.87 3.94.07 8.53.98 4.75 3.13 8.96.8 1.56.37 3.26-4.29 17.04-2.54 34.04 1.57 15.3-2.84 29.97a.39.38 12.2 0 0 .32.49q9.75 1.2 19.42 1.08 3.64-.04 5.34-1.03 2.56-1.5 3.42-4.78.56-2.13-.04-9.25l1.76-6.89q.74-2.89 3.7-1.31 3.94 2.11 8.33 2.74 9.15 10.27 22.24 14.73 1.14.39 2.01 1.19-7.33 1.83-14.47 4.27-5.54 1.89-3.72 6.96 3.8 10.52 1.65 19.81l-1.34-.68q-.52-.26-.93-.26-6.1.07-9.63 1.25-7.31 2.46-14.43 9.08-8.57 7.98-20 7.3-2.23-.13-4.81-1.51-4.1-2.19-6.57-2.68-4.87-.96-6.25 3-1.18 3.4-.49 7.62.87 5.28.79 6.34-.38 5.18-3.97 8.56-2.27 2.14-7.25 4.02-4.49 1.7-8.08 2.21-10.05 1.43-20 3.46.39-.98 1.69-2.27 3.19-3.19 9.54-9.96 7.79-8.3 9.25-10.24 8.12-10.82 8.4-24.72.19-9.5.19-9.53.62-6.51 2.18-11.74 2.51-8.42 6.87-20.55 6.37-17.73 6.67-18.85 3.14-11.62 2.49-23.89-.03-.53-.3-.83-.3-.36-.73-.59.51-1.11.25-2.04-3.6-13-12.29-24 4-9.31 10.23-17.31.99-1.28 4.06-6.3 2.54-4.17 3.47-6.63 3.54-9.43-.1-19.34-1.04-2.82-2.12-5.63z"/><path fill="#74706f" d="M436.75 269.71q21.63 16.63 44.44 31.6 5.8 3.81 18.56 13.9.89 7.94 3.74 15.43 2.27 5.98 4.49 11.99 4.67 12.64 1.86 25.83-.63 2.95-1.35 5.87-.91 3.73-2.19 5.54-3.68 5.22-11.04 4.27-9.53-1.24-15.7-9.02a1.34 1.34 62.8 0 1 .68-2.12q5.77-1.64 10.93-4.64 4.56-2.65 6.72-7.31.98-2.14-1.04-3.34-2.29-1.36-4.82-1.78-2.02-.33-5 .35-9.74 2.24-18.82 6.47l-1.46.04q-4.12.64-5.66-3.11-2-4.88-2.65-10.12-.67-5.38-3.75-12.25-.73-1.61-3.73-4.31.58-.49.58-1.25-.1-14-5.71-26.79-2.45-5.59-4.88-11.19-4.86-11.15-4.85-23.33 0-.57.65-.73z"/><path fill="#a79f9c" d="M330.96 313.25q4.09 2.23 8.79 1.77 4.53-.43 8.82-1.94 10.25-3.61 12.12-4.39 3.32-1.4 6.02-1.69-7.77 7.89-10.9 14.31-3.03 6.22-6.2 12.35-4.29 8.28-7.69 11.1-7.39 6.16-18.53 3.54-1.16-.27-.06-.74 4.4-1.89 7.94-4.99 3.19-2.81 3.93-5.41 1.06-3.7-1.97-7.14-3.83-4.35-9.15-6.69-8.98-3.94-18.83-3.91-3.99.01-7.45 1.9a2 2 76.6 0 0-1.05 1.71q-.21 6.9 1.36 13.65.86 3.73 1.37 7.52.1.75-.17 1.18-.56.91-1.61-.33-3.93-4.69-8.14-9.11-2.69-2.84-5.06.31-.97 1.29-1.59 3.93-.37 1.55-.58 4.17-.91 11.41-1.56 22.59a1.46 1.44 82.6 0 1-.98 1.29q-11.65 3.97-23.37 6.21-1.71.32-.72-1.11 2.81-4.03 5.5-7.37 2.23-2.77-.89-4.77-4.78-3.07-7.27-3.94 7.6-8.46 14.41-17.58a.26.26-63.1 0 0-.13-.4q-12.23-3.92-24.47-8.19-12.69-4.42-26.08-3.16-3.41.32-5.58 3.27-2.66 3.61-9.13 10.87-10.47 11.74-25.31 16.98-4.39-.63-8.33-2.74-2.96-1.58-3.7 1.31l-1.76 6.89q-4.94-1.31-5.96-5.75-1.12-4.91 1.82-10.18 6.22-11.13 16.04-19.25a1.09 1.05 29.5 0 1 .88-.23q14.39 2.65 25.7-4.9 12.52-8.36 17.06-10.69 7.6-3.89 15-5 3.95-.59 6.32-1.28 3.67-1.06 3.13-5.35-.3-2.38-1.37-4.52-2.19-4.4-3.06-10.46a1.25 1.24 79.7 0 1 .96-1.39q5.45-1.2 10.88-.05 6.05 1.29 9.62 6.33 1.71 2.4 3.34 4.86 2.22 3.33 5.42 5.48 2.71 1.84 6.97 2.87 6.14 1.49 12.51 1.16 1.98-.1 3.69-1.3 1.67-1.17 3.3-2.38 7.36-5.45 15.29-.72 2.8 1.67 9.19 6.31 4.24 3.09 11.27 5.19z"/><path fill="#aaaeb6" d="M115.71 294.5q8.69 11 12.29 24 .26.93-.25 2.04-3.6-1.61-7.44-2.33-4.01-.76-6.38.84-2.34 1.58-2.86 4.56-.12.66-.2 5.15-.1 5.56.13 13.24.11 3.58-.79 8-4.26-12.69-4.21-22 .09-16.78 9.71-33.5z"/><path fill="#bbb3ad" d="M391.96 320.25l2.01 2.08a1.27.77-72.9 0 1 .23.91q-.94 10.17.55 18.26 2.52 13.63 4.75 23.5 2.38 10.54 1.69 20.91-.08 1.23-.66 4.64-.39 2.33-.49 4.7-1.36 14.39-3.79 22-6.78 21.23-9.5 31.25-2.53 9.33-2.54 20.25l-4.67-2q.02-1.8-.5-3.51-2.91-9.77-6.65-18.69a1.5 1.5 80.5 0 0-1.29-.92q-18.09-1.03-33.84-1.84-27.25-1.41-54.96-5.39-1.57-.23-.26-1.12 9.96-6.75 14.58-17.69 8.41-19.93 2.6-40.95a1.53 1.53 80.6 0 0-1.56-1.12q-10.91.6-20.61 6.28-9.96 5.83-19.11 12.89-4.32 3.33-6.69 4.6-8.67-7.8-20.02-10.79a1.13 1.13 25.1 0 1-.63-1.74q5.45-7.81 10.34-16.07.48-.81.27-1.44 6.29-5.63 11.83-12 2.49.87 7.27 3.94 3.12 2 .89 4.77-2.69 3.34-5.5 7.37-.99 1.43.72 1.11 11.72-2.24 23.37-6.21a1.46 1.44 82.6 0 0 .98-1.29q.65-11.18 1.56-22.59.21-2.62.58-4.17.62-2.64 1.59-3.93 2.37-3.15 5.06-.31 4.21 4.42 8.14 9.11 1.05 1.24 1.61.33.27-.43.17-1.18-.51-3.79-1.37-7.52-1.57-6.75-1.36-13.65a2 2 76.6 0 1 1.05-1.71q3.46-1.89 7.45-1.9 9.85-.03 18.83 3.91 5.32 2.34 9.15 6.69 3.03 3.44 1.97 7.14-.74 2.6-3.93 5.41-3.54 3.1-7.94 4.99-1.1.47.06.74 11.14 2.62 18.53-3.54 3.4-2.82 7.69-11.1 3.17-6.13 6.2-12.35 3.13-6.42 10.9-14.31 3.32-1.18 6.63.12 5.09 1.99 9.25 5.56 4.58 3.92 9.37 7.57z"/><path fill="#565558" d="M499.75 315.21q25.89 15.34 53.27 27.83 33.02 15.07 44.23 19.96 22.09 9.63 43.75 20.21-5.37 9.16.44 17.6 5.13 7.46 13.56 16.4-.83.34-.5 1.29 2.42 7.02 2.61 14.44.14 5.37-2.03 10.98a2.06 2.04-84.8 0 1-1.5 1.26q-8.13 1.65-14.83 1.32-5.75-.29-13.79 1.04-1.54.26-2.23.92-1.41 1.35.83 2.98 3.5 2.53 9.34 5 .36.15.48.37.29.49-.64.56-7.37.59-14.01 1.08-2.15.15-1.27 2.12 1.81 3.99 4.44 6.96a1.04 1.04-30.9 0 1-.42 1.67q-8.18 2.97-16.86 6.74-10.83 4.7-18.62 13.54-6.47 7.33-12.06 14.59a.99.97-46.6 0 1-1.52.05q-3.76-4.34-6.88-5.53-3.55-1.36-3.81 2.44-.53 7.86-1.73 14.97-.63 3.72-3.76 6.85-2.68 2.68-3.2 3.54-1.35 2.26-1.54 4.61-.27 3.41.34 10.91.16 1.88-.02 3.68-.18 1.74-.37 3.69a.62.6-76.7 0 1-.82.52l-24.84-9.55q-9.07-9.93-16.94-20.76-1.19-1.64-.09-3.34 7.87-12.2 15.27-24.56 3.4-5.68 4.97-10.59 3.12-9.77-1.08-18.94-1.76-3.85-2.72-5.23-1.97-2.83-5.2-3.33-4.94-.76-13.56 1.69-2.77.78-6.24.57-3.4-.2-5.28-1.94-2.22-2.06-2.76-5.4-.63-3.92-1.85-5.98-11.35-19.16-14.56-41.69-2.62-18.42-7.54-38 9.08-4.23 18.82-6.47 2.98-.68 5-.35 2.53.42 4.82 1.78 2.02 1.2 1.04 3.34-2.16 4.66-6.72 7.31-5.16 3-10.93 4.64a1.34 1.34 62.8 0 0-.68 2.12q6.17 7.78 15.7 9.02 7.36.95 11.04-4.27 1.28-1.81 2.19-5.54.72-2.92 1.35-5.87 2.81-13.19-1.86-25.83-2.22-6.01-4.49-11.99-2.85-7.49-3.74-15.43z"/><path fill="#5d5546" d="M127.75 320.54q.43.23.73.59.27.3.3.83.65 12.27-2.49 23.89-.3 1.12-6.67 18.85-4.36 12.13-6.87 20.55-1.56 5.23-2.18 11.74 0 .03-.19 9.53-.28 13.9-8.4 24.72-1.46 1.94-9.25 10.24-6.35 6.77-9.54 9.96-1.3 1.29-1.69 2.27-2.03 11.19-1.21 22.54-.74 4.85-4.75 7.75-.61-.54-.54-1 .51-3.22.5-9.25-.02-17.14-.97-33.76a.86.85 82.2 0 0-1.03-.79q-11.03 2.31-21.69 5.11-6.31 1.66-8.56 1.9 11.21-11.6 17.31-19.15 15.91-19.68 29.63-34.62 8.41-9.16 14.12-17.13 8.15-11.36 5.9-25.31.9-4.42.79-8-.23-7.68-.13-13.24.08-4.49.2-5.15.52-2.98 2.86-4.56 2.37-1.6 6.38-.84 3.84.72 7.44 2.33z"/><path fill="#a5916f" d="M450.96 333q3 2.7 3.73 4.31 3.08 6.87 3.75 12.25.65 5.24 2.65 10.12 1.54 3.75 5.66 3.11.15 1.17-.44 2.77-2.37 6.44-3.74 13.7-.92 4.85-1.42 14.06-.83 15.23-1.9 21.68-3.01 18.12-16.95 31.55a2.16 2.16 36.1 0 1-2.45.38q-10.74-5.33-22.12-9.69-1.47-.56-.54.71 1.5 2.07 2.93 4.51 1.62 2.76 2.16 4.9 1.93 7.6-3.86 13.56-5.85 6-7.48 7.27-8.94 6.9-13.19 14.56-4.26 7.67-3.5 16.51.16 1.85 1.6 3.01 2.83 2.27 5.02 4.95 2.55 3.12 3.38 6.08 1.47 5.2-1.31 10.14-2.75 4.87-9.44 14.77-3.34-.83-5.19-2.27-2.76-2.15-2.15-5.23.28-1.46 2.38-4.5 1.63-2.36 3.16-4.79a.49.49 17.7 0 0-.39-.75q-5.39-.29-10.19 2.51a1.56 1.35 89.5 0 0-.62.73q-3.63 9.03-10.94 12.65-4.16 2.07-7.6.11-2.75-1.57-3.8-5.52-1.53-5.8.57-11.29 1.18-3.05 5.22-7.36 3.71-3.94 7.32-7.96 10.03-11.15 11.99-25.91.05-.33.63-4.23.42-2.8.32-5.65.01-10.92 2.54-20.25 2.72-10.02 9.5-31.25 2.43-7.61 3.79-22 .58.06.87.57 2.75 4.82 4.71 10.02 3.77 9.98-.09 19.96-1.75 4.55-3.43 9.12-.96 2.63-.51 4.79.72 3.46 2.76 5.8 1.27 1.44 2.55.01l8.04-8.96a4.41 4.38 70.4 0 0 1.05-2.23q1.2-7.8-.27-15.48-1.73-8.98-3.78-17.12-.44-1.71.47-3.24 4.76-8 10.71-14.12 6.02-6.21 9.24-14.01.68-1.63.08-3.29-4.16-11.54-8.13-23.13-.61-1.79-1.04-5.43-.38-3.25-.01-5.51 1.01-6.13 5.63-10.08 1.57-1.34 2.84-2.96 1.54-1.98 3.49-1.87 1.34.08 3.06 1.65 4.01 3.66 7.53 8.45 1.99 2.71 5.15 4.81z"/><path fill="#515146" d="M253.04 357.25q-5.54 6.37-11.83 12-15.07 2.74-30.21 5-1.86.28-10 .71-.87-.8-2.01-1.19-13.09-4.46-22.24-14.73 14.84-5.24 25.31-16.98 6.47-7.26 9.13-10.87 2.17-2.95 5.58-3.27 13.39-1.26 26.08 3.16 12.24 4.27 24.47 8.19a.26.26-63.1 0 1 .13.4q-6.81 9.12-14.41 17.58zm-35.38 6.45q3.08 1.22 6.09 1.04 12.1-.69 20.01-9.72 8.71-9.94-3.29-14.11a1.14 1.13-49.7 0 0-.91.08q-10.34 5.68-18.34 14.27-1.63 1.74-2.48 3.36-.94 1.75-1.65 3.85a.98.98-70 0 0 .57 1.23z"/><path fill="#827664" d="M466.75 362.79l1.46-.04q4.92 19.58 7.54 38 3.21 22.53 14.56 41.69 1.22 2.06 1.85 5.98.54 3.34 2.76 5.4 1.88 1.74 5.28 1.94 3.47.21 6.24-.57 8.62-2.45 13.56-1.69 3.23.5 5.2 3.33.96 1.38 2.72 5.23 4.2 9.17 1.08 18.94-1.57 4.91-4.97 10.59-7.4 12.36-15.27 24.56-1.1 1.7.09 3.34 7.87 10.83 16.94 20.76-.26 1.1-1.35 1.94-4.08 3.12-7.32 7.72-3.39 4.81-.31 9.78 1.25 2.01 5.63 5.42 4.88 3.8 5.94 5.02 5.55 6.36 3.92 15.35-.66 3.62 1.88.96 6.17-6.44 14.32-9.98.72.88.69 2.04-.21 10.77-1.22 21.5-1.55 16.38-10.68 29.48-1.35 1.95.95 2.52 4.52 1.11 9.13 1.15 2.86.03 9.06-1.15 6.22-1.18 12.53-1.75-.66 7.39-1.46 9.5-3.08 8.11-10.59 9.52-4.44.84-10.22-.91-5.02-1.53-9.44-4.51-1.22-.82-1 .63.83 5.5 1.2 11.02.64 9.51-6.81 15a2.78 2.76 38.9 0 1-2.8.29q-7.66-3.51-14.28-8.6-4.25-3.27-8.04-4.86-3.44-1.44-6.65-.45-4.27 1.32-7.08 5.2-1.25 1.73-2.34 3.29-.55.78-.92-.1-3-7-4.28-14.27-1.04-5.92 2.37-10.83 1.78-2.57 5.22-4.85 3.15-2.1 6.38-3.35 1.89-.74 2.24-2.73 2.26-12.89-4.13-23.62-1.31-2.21-2.79-3.16-1.95-1.24-4.22-1.18-2.24.07-5.2 1.95-2.42 1.53-4.5 3.42-.77.69-.85-.34-.32-4.18-.49-8.06-.51-11.43-5.04-3.75-1.64 2.77-1.67 2.82-3.25 5.1-6.81 10.06-1.6 2.23-2.03-.48-4.04-25.29 6.22-49.21 6.87-16.02 22.38-23.88 1.3-.66-.15-.85-3.95-.51-7.83-2.25a1.95 1.94 18.4 0 1-1.1-2.19q.69-3.22 1.69-6.33 1.31-4.11-1.32-8.88-.01-.03-.93-1.46-1.88-2.95-.8-5.74.81-2.09 3.52-4.01 2.24-1.58 4.87-2.52 6.09-2.18 11.79-5.27 2.3-1.25 1.27-3.65-.84-1.95-2.76-3.09-1.47-.87-3.84-.7-10.49.76-22.74 4.13-20.84 5.73-32 23.21-5.59 7.87-13.31 10.73-11.47 4.25-13.77 15.12-.83 3.93-1.78 5.01-2.27 2.6-6.33.87-5.69-2.42-12.31-7.73 6.69-9.9 9.44-14.77 2.78-4.94 1.31-10.14-.83-2.96-3.38-6.08-2.19-2.68-5.02-4.95-1.44-1.16-1.6-3.01-.76-8.84 3.5-16.51 4.25-7.66 13.19-14.56 1.63-1.27 7.48-7.27 5.79-5.96 3.86-13.56-.54-2.14-2.16-4.9-1.43-2.44-2.93-4.51-.93-1.27.54-.71 11.38 4.36 22.12 9.69a2.16 2.16 36.1 0 0 2.45-.38q13.94-13.43 16.95-31.55 1.07-6.45 1.9-21.68.5-9.21 1.42-14.06 1.37-7.26 3.74-13.7.59-1.6.44-2.77z"/><path fill="#a59fa2" d="M241.21 369.25q.21.63-.27 1.44-4.89 8.26-10.34 16.07a1.13 1.13 25.1 0 0 .63 1.74q11.35 2.99 20.02 10.79 6.89 7.73-2.81 11.15-5.44 1.91-21.65 5.74-5.24 1.24-11.6 4.76-6.26 3.46-6.69 10.27-15.43 8.43-30.79 17.02-7.88 4.4-14.25 10.77-1.19-.76-1.96-.5-13.8 4.71-20 6.25-7.47 1.86-16-.29 2.15-6.7 8.31-7.9 8.7-1.68 17.39-3.4 2.48-.5 3.96-1.27 1.88-.99 3.44-2.41 1.73-1.58 3.43-5.09 6.29-13.04 13.53-25.58 1.87-3.24 8.9-12.81 2.15-9.29-1.65-19.81-1.82-5.07 3.72-6.96 7.14-2.44 14.47-4.27 8.14-.43 10-.71 15.14-2.26 30.21-5z"/><path fill="#cbcbd3" d="M379.54 466.75q-5.91 16.22-17.55 28.99-10.27 11.26-17.8 18.45-8.97 8.56-15.23 17.06-8.45 7.2-7.06 18.51.86 7.03 2.91 12.93 4.73 13.6 7.48 26.06-4.4 1.63-9.04 2.19a.8.8-19.7 0 1-.77-.36q-11.43-17.83-26.17-36.39-9.35-11.79-18.27-26.44.92-.03 1.68.52 6.84 4.95 13.92 9.55 7.16 4.65 13.17-1.51 9.3-9.54 21.22-19.98 7.66-6.7 10.87-9.75 5.3-5.04 10.42-10.26 8.3-8.45 14.03-18.8 5.37-9.69 4.15-20.79a1.11 1.11-45 0 0-.98-.98q-12.6-1.37-25.03-3.7-21.72-4.05-43.74-7.84a1.76 1.75-70.4 0 0-1.84.88q-7.42 13.39-10.86 28.32-1.21 5.28-2.88 19.77-1.95 16.94-4.67 33.78-7.29-8.26-9.06-19.2-1.55-9.57-1.99-20.56a2.1 2.09-80.5 0 0-1.32-1.86q-7.54-3-16.01-2.75-5.17.16-5.25.16-4.81.01-9.62.03-8 .05-15-3.74 7.32-7.38 15.57-13.74 1.6-1.22-.4-1.36l-20.56-1.42q-1.57-.11-.62-1.36 1.2-1.59 3.05-1.99 3.83-.85 7.74-.96 5.21-.15 6.79-.93 3.44-1.71 4.22-5.98.02-.11.09-2.21.09-2.64 2.69-3.51 4.57-1.52 6.32-3.86 2.13-2.83-1.35-3.52-4.53-.88-8.06-1.21-8.68-.81-17.23-2.49-3.61-.71-9-3.29.43-6.81 6.69-10.27 6.36-3.52 11.6-4.76 16.21-3.83 21.65-5.74 9.7-3.42 2.81-11.15 2.37-1.27 6.69-4.6 9.15-7.06 19.11-12.89 9.7-5.68 20.61-6.28a1.53 1.53 80.6 0 1 1.56 1.12q5.81 21.02-2.6 40.95-4.62 10.94-14.58 17.69-1.31.89.26 1.12 27.71 3.98 54.96 5.39 15.75.81 33.84 1.84a1.5 1.5 80.5 0 1 1.29.92q3.74 8.92 6.65 18.69.52 1.71.5 3.51z"/><path fill="#363539" d="M641 383.21q23.56 10.36 39 16.29 23.5 9.03 40.08 16.08 9.27 3.94 10.72 5.15 5.08 4.21 4.13 12.51-1.5 13.02-6.22 25.26-10.34-1.42-20.76-.24-2.9.32-1.51 2.88.65 1.18 1.82 2.47 1.55 1.71 1.89 2.35 1.59 3.05-2.15 4.29-6.18 2.05-13.25-.25-2.41-.78-4.11-2.1-2.51-1.94-2.57-1.98-11.71-7.14-20.76 3.64-7 8.35-10.27 19.44-3.02 13.01-11.53 23.27-5.33 6.42-12.45 13.04-3.23 3.01-16.26 15.49-6.54 6.27-10.99 13.01-5.3 8.04-11.22 14.03-10.65 10.8-19.37 23.19a.57.56-59.5 0 1-.72.19q-13.09-6.44-24.54-15.47 3.29-5.37 6.73-8.81 13.32-13.35 16.68-33.06a1.02 1.02 7.6 0 1 1.1-.84q7.07.7 13.72 2.52 3.26.9 5.64.38a1.2 1.14-80.2 0 0 .74-.55q1.78-2.97 1.39-6.4-.27-2.37-.28-2.51-.17-2.74-.5-5.92-.2-1.88 1.68-1.98 5.15-.3 9.82-1.91 4.18-1.44 6.53-4.73 1.66-2.32 2.68-7.22 1.16-5.64 1.34-11.07a2.02 2.01-12.5 0 1 1.11-1.73q5.89-2.94 11.14-5.85 7.38-4.1 10.07-7.38 4.68-5.71 4.7-13.96a1.72 1.71-5.5 0 1 1.39-1.68q8.46-1.69 15.92-7.29 11.07-8.31 21.6-18.02a.58.57 49.6 0 0 .06-.78q-5.29-6.64-12.53-11.15-5.41-3.36-15.69-8.6-8.43-8.94-13.56-16.4-5.81-8.44-.44-17.6z"/><path fill="#9b8b7d" d="M184.46 406q-7.03 9.57-8.9 12.81-7.24 12.54-13.53 25.58-1.7 3.51-3.43 5.09-1.56 1.42-3.44 2.41-1.48.77-3.96 1.27-8.69 1.72-17.39 3.4-6.16 1.2-8.31 7.9-11.42.86-21.99-3.38-4.42-1.77-5.32-2.02-7.49-2.02-11.38 4-3.03 4.7-6.52 13.19-.82-11.35 1.21-22.54 9.95-2.03 20-3.46 3.59-.51 8.08-2.21 4.98-1.88 7.25-4.02 3.59-3.38 3.97-8.56.08-1.06-.79-6.34-.69-4.22.49-7.62 1.38-3.96 6.25-3 2.47.49 6.57 2.68 2.58 1.38 4.81 1.51 11.43.68 20-7.3 7.12-6.62 14.43-9.08 3.53-1.18 9.63-1.25.41 0 .93.26z"/><path fill="#696a75" d="M655 417.21q10.28 5.24 15.69 8.6 7.24 4.51 12.53 11.15a.58.57 49.6 0 1-.06.78q-10.53 9.71-21.6 18.02-7.46 5.6-15.92 7.29a1.72 1.71-5.5 0 0-1.39 1.68q-.02 8.25-4.7 13.96-2.69 3.28-10.07 7.38-5.25 2.91-11.14 5.85a2.02 2.01-12.5 0 0-1.11 1.73q-.18 5.43-1.34 11.07-1.02 4.9-2.68 7.22-2.35 3.29-6.53 4.73-4.67 1.61-9.82 1.91-1.88.1-1.68 1.98.33 3.18.5 5.92.01.14.28 2.51.39 3.43-1.39 6.4a1.2 1.14-80.2 0 1-.74.55q-2.38.52-5.64-.38-6.65-1.82-13.72-2.52a1.02 1.02 7.6 0 0-1.1.84q-3.36 19.71-16.68 33.06-3.44 3.44-6.73 8.81-.87.05-1.46.71-8.15 3.54-14.32 9.98-2.54 2.66-1.88-.96 1.63-8.99-3.92-15.35-1.06-1.22-5.94-5.02-4.38-3.41-5.63-5.42-3.08-4.97.31-9.78 3.24-4.6 7.32-7.72 1.09-.84 1.35-1.94l24.84 9.55a.62.6-76.7 0 0 .82-.52q.19-1.95.37-3.69.18-1.8.02-3.68-.61-7.5-.34-10.91.19-2.35 1.54-4.61.52-.86 3.2-3.54 3.13-3.13 3.76-6.85 1.2-7.11 1.73-14.97.26-3.8 3.81-2.44 3.12 1.19 6.88 5.53a.99.97-46.6 0 0 1.52-.05q5.59-7.26 12.06-14.59 7.79-8.84 18.62-13.54 8.68-3.77 16.86-6.74a1.04 1.04-30.9 0 0 .42-1.67q-2.63-2.97-4.44-6.96-.88-1.97 1.27-2.12 6.64-.49 14.01-1.08.93-.07.64-.56-.12-.22-.48-.37-5.84-2.47-9.34-5-2.24-1.63-.83-2.98.69-.66 2.23-.92 8.04-1.33 13.79-1.04 6.7.33 14.83-1.32a2.06 2.04-84.8 0 0 1.5-1.26q2.17-5.61 2.03-10.98-.19-7.42-2.61-14.44-.33-.95.5-1.29z"/><path fill="#d7dbea" d="M208.5 431.21q5.39 2.58 9 3.29 8.55 1.68 17.23 2.49 3.53.33 8.06 1.21 3.48.69 1.35 3.52-1.75 2.34-6.32 3.86-2.6.87-2.69 3.51-.07 2.1-.09 2.21-.78 4.27-4.22 5.98-1.58.78-6.79.93-3.91.11-7.74.96-1.85.4-3.05 1.99-.95 1.25.62 1.36l20.56 1.42q2 .14.4 1.36-8.25 6.36-15.57 13.74-9.34-3.17-12.25-3.79-9.13-1.94-16.5-.25-10.89 2.49-21.81 9.91-11.35 7.7-20.25 11.53-14.05 6.04-29.34 3.54-1.37-.23-.47-1.29 3.37-3.95 7.81-7.5 4.53-3.63 18.62-13.63 9.97-7.07 16.63-15.37.79-.99 1.77-3.19 6.37-6.37 14.25-10.77 15.36-8.59 30.79-17.02z"/><path fill="#28282f" d="M75.54 484l-5.83 7-14.92 14.34q-.04.03-.51.82l-.53.88q-13.37-8.03-20.94-20.85-2.01-3.4-3.41-7.67-1.42-4.3-1.45-8.19-.09-12.79 10.69-20.71 2.31-1.7 4.61-3.41 2.25-.24 8.56-1.9 10.66-2.8 21.69-5.11a.86.85 82.2 0 1 1.03.79q.95 16.62.97 33.76.01 6.03-.5 9.25-.07.46.54 1z"/><path fill="#e7ebf6" d="M278.04 527.75l-.54-.79q2.72-16.84 4.67-33.78 1.67-14.49 2.88-19.77 3.44-14.93 10.86-28.32a1.76 1.75-70.4 0 1 1.84-.88q22.02 3.79 43.74 7.84 12.43 2.33 25.03 3.7a1.11 1.11 45 0 1 .98.98q1.22 11.1-4.15 20.79-5.73 10.35-14.03 18.8-5.12 5.22-10.42 10.26-3.21 3.05-10.87 9.75-11.92 10.44-21.22 19.98-6.01 6.16-13.17 1.51-7.08-4.6-13.92-9.55-.76-.55-1.68-.52z"/><path fill="#525259" d="M728.71 458.5q-4.13 13.39-8.84 26.59-5.1 14.32-12.41 27.66l-1.31-.94a1.45 1.17 55.9 0 0-.89-.27q-6.02.45-12.01-.32-8.85-1.13-11.52-9.54-1.37-4.3-2.25-8.73-1.07-5.44-5.31-7.04-2.81-1.06-7.86.11-4.74 1.1-9.27 2.98 3.27-11.09 10.27-19.44 9.05-10.78 20.76-3.64.06.04 2.57 1.98 1.7 1.32 4.11 2.1 7.07 2.3 13.25.25 3.74-1.24 2.15-4.29-.34-.64-1.89-2.35-1.17-1.29-1.82-2.47-1.39-2.56 1.51-2.88 10.42-1.18 20.76.24z"/><path fill="#b0b4c4" d="M125.5 464.46q8.53 2.15 16 .29 6.2-1.54 20-6.25.77-.26 1.96.5-.98 2.2-1.77 3.19-6.66 8.3-16.63 15.37-14.09 10-18.62 13.63-4.44 3.55-7.81 7.5-.9 1.06.47 1.29 15.29 2.5 29.34-3.54 8.9-3.83 20.25-11.53 10.92-7.42 21.81-9.91 7.37-1.69 16.5.25 2.91.62 12.25 3.79 7 3.79 15 3.74 4.81-.02 9.62-.03.08 0 5.25-.16 8.47-.25 16.01 2.75a2.1 2.09-80.5 0 1 1.32 1.86q.44 10.99 1.99 20.56 1.77 10.94 9.06 19.2l.54.79q8.92 14.65 18.27 26.44 14.74 18.56 26.17 36.39a.8.8-19.7 0 0 .77.36q4.64-.56 9.04-2.19 5.36 8.92 10.5 17.97 6.79 11.95 20.25 13.9.08.02 1.91.18 2.88.26 5.18 1.77 1.86 1.21 1.06 3.1l-5 11.91q-.75 1.77-.21 3.34 1.23 3.56 4.08 7.02 1.45 1.75 2.32 3.06 1.38 2.1 1.71 3 .7 1.93-.65 3.69-.75.96-4.33 4.46a1.47.94 12.3 0 1-.86.32q-1.02.04-1.5 1.07-19.57-18.33-36.06-39.48-3.76-4.81-11.3-12.53-8.04-8.23-11.44-12.37-8.42-10.22-13.89-19.72-11.74-20.4-22.85-41.14-10.11-18.9-25.02-36.74-2.31-2.76-5.44-3.08-4.49-.47-9-.64-4.35-.16-9 .27-17.01 1.56-32.44 6.2-9.92 2.99-48.56 15.19-9.2 2.91-22.56 5.43-11.55 2.18-24.94 1.57-8.75-.4-15.79-3.25.59-1.25 2.29-1.5 12.6-1.86 24.38-6.54 1.06-.42.15-1.11-11.54-8.75-24.08-15.52-2.93-1.58-5.17-2.95-4.07-2.5-5.09-3.07-1.13-.62-1.23-1.56l5.83-7q4.01-2.9 4.75-7.75 3.49-8.49 6.52-13.19 3.89-6.02 11.38-4 .9.25 5.32 2.02 10.57 4.24 21.99 3.38z"/><path fill="#b5a68a" d="M379.54 466.75l4.67 2q.1 2.85-.32 5.65-.58 3.9-.63 4.23-1.96 14.76-11.99 25.91-3.61 4.02-7.32 7.96-4.04 4.31-5.22 7.36-2.1 5.49-.57 11.29 1.05 3.95 3.8 5.52 3.44 1.96 7.6-.11 7.31-3.62 10.94-12.65a1.56 1.35 89.5 0 1 .62-.73q4.8-2.8 10.19-2.51a.49.49 17.7 0 1 .39.75q-1.53 2.43-3.16 4.79-2.1 3.04-2.38 4.5-.61 3.08 2.15 5.23 1.85 1.44 5.19 2.27 6.62 5.31 12.31 7.73 4.06 1.73 6.33-.87.95-1.08 1.78-5.01 2.3-10.87 13.77-15.12 7.72-2.86 13.31-10.73 1.05.45 4.75.79 6.38.58 14.1 1.39.83.09.15.57-6.41 4.58-10.39 10.93-3.17 5.04-5.86 10.36-3.67 7.25-8.33 13.9-.04.06-1.54 2-2.96 3.84-2.38 8.1.74 5.41 4.77 13.49 1.95 3.9 4.79 11.45 1.13 2.99.75 5.7-.22 1.54-2.15 4.14-4.17 5.62-3.46 12.57.63 6.23.62 6.34-.54 4.52-4.92 7.19-7.64 4.66-11.44 12.75-3.25 6.91.35 12.81 3.65 5.96 10.51 10.66 3.57 2.43 3.67 2.51 3.78 2.68 7.63 5.16 1.04.67 1.07-.57.1-4.99.52-9.95.53-6.31 3.54-12.52a2.87 2.86-85.2 0 1 1.74-1.48q9.73-2.96 12.83 6.06 1.16 3.37.97 6.94-.75 14.29-9.97 25.09-3.82 4.47-9.52 5.98-1.03.27.02.44 4.13.68 7.64 3.05 3.86 2.62 3.04 7.44-.73 4.29-1.25 13.46-15.35 3.63-23.5 4.54-18.62 2.08-25-14.96.45.03.49-.29.64-5.81-.43-11.56-.85-4.6-4.18-15.73-.67-2.25-1.38-9.71-1.23-12.9 4.73-23.04 3.87-6.6 6.82-13.65 3.39-8.13 1.43-18.18a1.23 1.22-11.5 0 1 .95-1.43q4.89-1.04 8.77-3.02a1.41 1.41-35.7 0 0 .37-2.24q-2.72-2.77-6.57-4.94-2.64-1.47-2.89-4.01-.17-1.77 1.35-3.58 1.43-1.7 2.98-2.72 3.93-2.6 6.11-5.91 1.83-2.75.01-6.09-2.19-4.03-4.45-6.06-6.09-5.47-13.61-10.77a1.38 1.37 45.4 0 0-1.54-.02q-3.57 2.36-6.32 5.08-1.86 1.83-2.45 3.36-.92 2.35.19 4.4.98 1.8 4.23 3.55 4.46 2.4 9.22 3.43 1.58.34.31 1.34l-17.97 14.2a1.03 1.02 49.6 0 0-.11 1.5q1.7 1.86 2.94 4.45 4.13 8.69-1.09 15.22-2.12 2.65-4.94 4-3.13 1.49-6.47 1.13-4.34-.47-8.07-2.99-2-1.35-6.55-5.31-3.2-2.78-5.82-6.12-2.32-2.96-2.67-5.19-.63-3.93 3.61-5.64 5.4-2.18 13.94-2.31a.66.64 6.3 0 0 .62-.48q1.75-7.37-2.27-13.76-2.69-4.29-7.48-8.01-6.51-5.06-9.37-6.85-10.12-6.32-19-14.28-7.29-6.53-9.23-17.06 6.26-8.5 15.23-17.06 7.53-7.19 17.8-18.45 11.64-12.77 17.55-28.99z"/><path fill="#6d6a68" d="M707.46 512.75l-7.42 13.75q-1.55-.31-2.45-1.58-2.43-3.46-5.84-5.85-1.93-1.35-3.37-1.41-2.41-.11-3.32 2.65-2.3 6.95-3.14 16.28-.23 2.61-.59 4.29-.46 2.16-1.03 4.2-.39 1.38-.96.08l-9.88-22.76a.49.48 52.9 0 0-.82-.12q-5 6.17-5.08 13.78-.04 3.86 1.86 9.71 1.5 4.61 3.49 9.31a.85.84 73.5 0 1-.62 1.16q-16.8 3.22-27.11 16.66-6.4 8.35-6.62 16.91-.21 8.6 4.38 15.25.82 1.2 2.56.98l-7 7q-7.34-4.59-11.25-13.04-3.59-7.75-9.52-16.97-1.05-1.62-1.88-2.19-1.41-.95-3-.58-1.57.37-2.92 2.43-2.14 3.29-3.5 7.01a.94.94-63.9 0 1-1.39.48q-8.78-5.62-15.73 1.88-4.9 5.3-8.09 12.93-1.07 2.55-4.37 12.54-2.08 6.32-3.89 12.72-6.31.57-12.53 1.75-6.2 1.18-9.06 1.15-4.61-.04-9.13-1.15-2.3-.57-.95-2.52 9.13-13.1 10.68-29.48 1.01-10.73 1.22-21.5.03-1.16-.69-2.04.59-.66 1.46-.71 11.45 9.03 24.54 15.47a.57.56-59.5 0 0 .72-.19q8.72-12.39 19.37-23.19 5.92-5.99 11.22-14.03 4.45-6.74 10.99-13.01 13.03-12.48 16.26-15.49 7.12-6.62 12.45-13.04 8.51-10.26 11.53-23.27 4.53-1.88 9.27-2.98 5.05-1.17 7.86-.11 4.24 1.6 5.31 7.04.88 4.43 2.25 8.73 2.67 8.41 11.52 9.54 5.99.77 12.01.32a1.45 1.17 55.9 0 1 .89.27z"/><path fill="#a29177" d="M568.96 630.25q1.81-6.4 3.89-12.72 3.3-9.99 4.37-12.54 3.19-7.63 8.09-12.93 6.95-7.5 15.73-1.88a.94.94-63.9 0 0 1.39-.48q1.36-3.72 3.5-7.01 1.35-2.06 2.92-2.43 1.59-.37 3 .58.83.57 1.88 2.19 5.93 9.22 9.52 16.97 3.91 8.45 11.25 13.04-73.98 75.01-177.32 97.38-1.94.42-3.93.54.52-9.17 1.25-13.46.82-4.82-3.04-7.44-3.51-2.37-7.64-3.05-1.05-.17-.02-.44 5.7-1.51 9.52-5.98 9.22-10.8 9.97-25.09.19-3.57-.97-6.94-3.1-9.02-12.83-6.06a2.87 2.86-85.2 0 0-1.74 1.48q-3.01 6.21-3.54 12.52-.42 4.96-.52 9.95-.03 1.24-1.07.57-3.85-2.48-7.63-5.16-.1-.08-3.67-2.51-6.86-4.7-10.51-10.66-3.6-5.9-.35-12.81 3.8-8.09 11.44-12.75 4.38-2.67 4.92-7.19.01-.11-.62-6.34-.71-6.95 3.46-12.57 1.93-2.6 2.15-4.14.38-2.71-.75-5.7-2.84-7.55-4.79-11.45-4.03-8.08-4.77-13.49-.58-4.26 2.38-8.1 1.5-1.94 1.54-2 4.66-6.65 8.33-13.9 2.69-5.32 5.86-10.36 3.98-6.35 10.39-10.93.68-.48-.15-.57-7.72-.81-14.1-1.39-3.7-.34-4.75-.79 11.16-17.48 32-23.21 12.25-3.37 22.74-4.13 2.37-.17 3.84.7 1.92 1.14 2.76 3.09 1.03 2.4-1.27 3.65-5.7 3.09-11.79 5.27-2.63.94-4.87 2.52-2.71 1.92-3.52 4.01-1.08 2.79.8 5.74.92 1.43.93 1.46 2.63 4.77 1.32 8.88-1 3.11-1.69 6.33a1.95 1.94 18.4 0 0 1.1 2.19q3.88 1.74 7.83 2.25 1.45.19.15.85-15.51 7.86-22.38 23.88-10.26 23.92-6.22 49.21.43 2.71 2.03.48 3.56-4.96 6.81-10.06.03-.05 1.67-2.82 4.53-7.68 5.04 3.75.17 3.88.49 8.06.08 1.03.85.34 2.08-1.89 4.5-3.42 2.96-1.88 5.2-1.95 2.27-.06 4.22 1.18 1.48.95 2.79 3.16 6.39 10.73 4.13 23.62-.35 1.99-2.24 2.73-3.23 1.25-6.38 3.35-3.44 2.28-5.22 4.85-3.41 4.91-2.37 10.83 1.28 7.27 4.28 14.27.37.88.92.1 1.09-1.56 2.34-3.29 2.81-3.88 7.08-5.2 3.21-.99 6.65.45 3.79 1.59 8.04 4.86 6.62 5.09 14.28 8.6a2.78 2.76 38.9 0 0 2.8-.29q7.45-5.49 6.81-15-.37-5.52-1.2-11.02-.22-1.45 1-.63 4.42 2.98 9.44 4.51 5.78 1.75 10.22.91 7.51-1.41 10.59-9.52.8-2.11 1.46-9.5z"/><path fill="#767c96" d="M69.71 491q.1.94 1.23 1.56 1.02.57 5.09 3.07 2.24 1.37 5.17 2.95 12.54 6.77 24.08 15.52.91.69-.15 1.11-11.78 4.68-24.38 6.54-1.7.25-2.29 1.5-3.19-.38-6.46-2.75-14.05-10.18-18.25-13.46l.53-.88q.47-.79.51-.82z"/><path fill="#545355" d="M700.04 526.5q-12.93 22.9-28.85 45.94-13.03 18.85-29.69 33.6-1.74.22-2.56-.98-4.59-6.65-4.38-15.25.22-8.56 6.62-16.91 10.31-13.44 27.11-16.66a.85.84 73.5 0 0 .62-1.16q-1.99-4.7-3.49-9.31-1.9-5.85-1.86-9.71.08-7.61 5.08-13.78a.49.48 52.9 0 1 .82.12l9.88 22.76q.57 1.3.96-.08.57-2.04 1.03-4.2.36-1.68.59-4.29.84-9.33 3.14-16.28.91-2.76 3.32-2.65 1.44.06 3.37 1.41 3.41 2.39 5.84 5.85.9 1.27 2.45 1.58z"/><path fill="#bcb6a7" d="M328.96 531.25q1.94 10.53 9.23 17.06 8.88 7.96 19 14.28 2.86 1.79 9.37 6.85 4.79 3.72 7.48 8.01 4.02 6.39 2.27 13.76a.66.64 6.3 0 1-.62.48q-8.54.13-13.94 2.31-4.24 1.71-3.61 5.64.35 2.23 2.67 5.19 2.62 3.34 5.82 6.12 4.55 3.96 6.55 5.31 3.73 2.52 8.07 2.99 3.34.36 6.47-1.13 2.82-1.35 4.94-4 5.22-6.53 1.09-15.22-1.24-2.59-2.94-4.45a1.03 1.02 49.6 0 1 .11-1.5l17.97-14.2q1.27-1-.31-1.34-4.76-1.03-9.22-3.43-3.25-1.75-4.23-3.55-1.11-2.05-.19-4.4.59-1.53 2.45-3.36 2.75-2.72 6.32-5.08a1.38 1.37 45.4 0 1 1.54.02q7.52 5.3 13.61 10.77 2.26 2.03 4.45 6.06 1.82 3.34-.01 6.09-2.18 3.31-6.11 5.91-1.55 1.02-2.98 2.72-1.52 1.81-1.35 3.58.25 2.54 2.89 4.01 3.85 2.17 6.57 4.94a1.41 1.41-35.7 0 1-.37 2.24q-3.88 1.98-8.77 3.02a1.23 1.22-11.5 0 0-.95 1.43q1.96 10.05-1.43 18.18-2.95 7.05-6.82 13.65-5.96 10.14-4.73 23.04.71 7.46 1.38 9.71 3.33 11.13 4.18 15.73 1.07 5.75.43 11.56-.04.32-.49.29-19.76-17.72-38-37 .48-1.03 1.5-1.07a1.47.94 12.3 0 0 .86-.32q3.58-3.5 4.33-4.46 1.35-1.76.65-3.69-.33-.9-1.71-3-.87-1.31-2.32-3.06-2.85-3.46-4.08-7.02-.54-1.57.21-3.34l5-11.91q.8-1.89-1.06-3.1-2.3-1.51-5.18-1.77-1.83-.16-1.91-.18-13.46-1.95-20.25-13.9-5.14-9.05-10.5-17.97-2.75-12.46-7.48-26.06-2.05-5.9-2.91-12.93-1.39-11.31 7.06-18.51z"/><path fill="#fed659" d="M217.66 363.7a.98.98 0 0 1-.57-1.23q.71-2.1 1.65-3.85.85-1.62 2.48-3.36 8-8.59 18.34-14.27a1.13 1.14 40.3 0 1 .91-.08q12 4.17 3.29 14.11-7.91 9.03-20.01 9.72-3.01.18-6.09-1.04z"/></g></g></svg>
